<?xml version="1.0" encoding="UTF-8"?>
<svg version="1.1" xmlns="http://www.w3.org/2000/svg" width="512" height="512">
<path d="M0 0 C7.5358948 4.43361811 13.87831044 12.53459362 17.03125 20.6796875 C19.03236635 29.13177104 18.47557193 37.09211907 14.5 44.80859375 C9.45845882 51.20504912 2.49147923 55.89342826 -4.0625 60.625 C-11.06501288 65.73030758 -17.99587114 70.91715851 -24.875 76.1875 C-33.97419847 83.14838683 -43.14649896 89.99930468 -52.41015625 96.73974609 C-54.1265873 98.00446231 -55.81581441 99.30593219 -57.5 100.61328125 C-61.14046691 103.38247788 -64.03607629 105.57705757 -68.6875 105.9375 C-73.187362 105.02227383 -74.53601781 103.73622774 -77.375 100.1875 C-78.5196875 98.8571875 -78.5196875 98.8571875 -79.6875 97.5 C-81.375 95.1875 -81.375 95.1875 -81.375 93.1875 C-86.27366155 95.87647305 -90.76255176 98.77972189 -95.1875 102.1875 C-95.75919922 102.61289063 -96.33089844 103.03828125 -96.91992188 103.4765625 C-99.97041026 105.81371694 -102.03394421 107.58044176 -103.375 111.1875 C-103.66103495 114.31725516 -103.66103495 114.31725516 -103.61328125 117.7890625 C-103.62939453 119.08457031 -103.64550781 120.38007812 -103.66210938 121.71484375 C-103.67845037 123.75527275 -103.68756138 125.79496117 -103.68041992 127.83544922 C-103.66610063 138.52284596 -105.02285209 146.49509704 -112.25 154.625 C-118.09845666 160.06785899 -124.87735154 164.56304749 -131.375 169.1875 C-130.07451624 172.80392461 -128.53011099 175.57420534 -126.171875 178.6015625 C-125.20592407 179.85296021 -125.20592407 179.85296021 -124.22045898 181.12963867 C-123.52895752 182.01498291 -122.83745605 182.90032715 -122.125 183.8125 C-120.67194436 185.69566406 -119.22014723 187.57979976 -117.76953125 189.46484375 C-117.03557129 190.4172998 -116.30161133 191.36975586 -115.54541016 192.35107422 C-91.20077741 224.16614096 -91.20077741 224.16614096 -91.3125 231.875 C-91.32152344 232.68324219 -91.33054687 233.49148437 -91.33984375 234.32421875 C-91.35724609 235.24654297 -91.35724609 235.24654297 -91.375 236.1875 C-90.27800781 236.16429687 -89.18101562 236.14109375 -88.05078125 236.1171875 C-86.596361 236.09842079 -85.14193336 236.08022156 -83.6875 236.0625 C-82.96626953 236.04574219 -82.24503906 236.02898437 -81.50195312 236.01171875 C-77.3449938 235.97375565 -74.01732691 236.10054512 -70.375 238.1875 C-67.81915264 240.70544055 -67.38585835 242.08161051 -67.01423645 245.70562744 C-67.00556732 247.13219168 -67.01345373 248.55891512 -67.03442383 249.98535156 C-67.03398575 250.76622131 -67.03354767 251.54709106 -67.03309631 252.35162354 C-67.03518292 254.92738018 -67.0585075 257.50248235 -67.08203125 260.078125 C-67.08762767 261.86602421 -67.09189755 263.65392803 -67.09489441 265.4418335 C-67.10633957 270.14372496 -67.13580393 274.84533768 -67.16900635 279.54711914 C-67.1997143 284.34647857 -67.2134013 289.14588311 -67.22851562 293.9453125 C-67.26067394 303.35949736 -67.31186635 312.77347548 -67.375 322.1875 C-66.59683426 322.17639694 -65.81866852 322.16529388 -65.016922 322.15385437 C-57.67517949 322.05357335 -50.33377009 321.9774959 -42.99152088 321.92843914 C-39.2169499 321.90237018 -35.44294586 321.86702371 -31.66870117 321.81030273 C-28.02469519 321.75588319 -24.38123369 321.72605914 -20.73685265 321.71311378 C-19.34814573 321.70389143 -17.95946785 321.68588147 -16.57099342 321.65884972 C-14.62290256 321.62243929 -12.67426109 321.62045661 -10.72583008 321.61987305 C-9.6177449 321.60876999 -8.50965973 321.59766693 -7.36799622 321.58622742 C-3.20556347 322.42243185 -1.82071025 323.73190294 0.625 327.1875 C1.32928218 330.204308 1.3090067 333.12541198 1.27197266 336.21289062 C1.28511505 337.56256172 1.28511505 337.56256172 1.29852295 338.9394989 C1.3204952 341.90807592 1.30597184 344.87515835 1.2890625 347.84375 C1.29243126 349.90971156 1.29728437 351.97567119 1.30355835 354.04162598 C1.31092674 358.36925139 1.30022496 362.69636044 1.27685547 367.02392578 C1.24836804 372.56930899 1.26477214 378.11348228 1.29471779 383.65882111 C1.31279146 387.92426662 1.30703234 392.18942559 1.29407883 396.45487976 C1.29074502 398.49940637 1.29483097 400.54395904 1.30647659 402.5884552 C1.31918621 405.44704014 1.29980665 408.30366997 1.27197266 411.16210938 C1.28209381 412.00589645 1.29221497 412.84968353 1.30264282 413.71903992 C1.2276288 417.88052323 0.94995303 419.72836682 -1.51850891 423.21611023 C-4.91171949 425.55791366 -6.6334834 425.79613243 -10.72583008 425.75512695 C-11.9867598 425.7547493 -13.24768951 425.75437164 -14.54682922 425.75398254 C-15.91274006 425.72845324 -17.27864069 425.70237333 -18.64453125 425.67578125 C-20.04984782 425.66644859 -21.45518072 425.65933461 -22.86051941 425.65434265 C-26.54838459 425.63530772 -30.23525551 425.58623971 -33.92272949 425.53082275 C-37.68988598 425.47955304 -41.45720411 425.4568123 -45.22460938 425.43164062 C-52.6085248 425.37811537 -59.99162276 425.29284782 -67.375 425.1875 C-67.36500725 426.67754547 -67.36500725 426.67754547 -67.35481262 428.19769287 C-67.29401675 437.55587957 -67.2490347 446.91402624 -67.21956348 456.27236557 C-67.20390271 461.08367896 -67.18265689 465.89483301 -67.14868164 470.70605469 C-67.11610292 475.34852923 -67.09815009 479.99085045 -67.09036827 484.63343048 C-67.08482209 486.40528019 -67.07399182 488.17712145 -67.05780983 489.94890594 C-67.03605515 492.42933841 -67.03303222 494.90913603 -67.03442383 497.38964844 C-67.01824509 498.49016541 -67.01824509 498.49016541 -67.0017395 499.61291504 C-67.01929453 502.50171422 -67.16689052 504.76928198 -68.46406794 507.37609726 C-71.30120076 510.06546036 -73.44781734 509.68774634 -77.31067657 509.68807125 C-78.38072867 509.6963425 -78.38072867 509.6963425 -79.47239798 509.70478085 C-81.88139838 509.71846035 -84.28938188 509.70343449 -86.69836426 509.68870544 C-88.43536094 509.6925953 -90.17235445 509.6982332 -91.90934038 509.70547634 C-96.69694541 509.72029436 -101.48422366 509.71001229 -106.2718184 509.69573963 C-111.42935227 509.68466961 -116.58683879 509.69655923 -121.74436951 509.70558167 C-131.85367034 509.71954331 -141.96284659 509.71193641 -152.07214153 509.69690608 C-163.83494813 509.68008036 -175.59772339 509.68325189 -187.3605383 509.68700016 C-208.34276041 509.6928841 -229.32492259 509.67868625 -250.30712891 509.65405273 C-270.68573249 509.63013041 -291.06425599 509.6230478 -311.44287109 509.63354492 C-333.61255037 509.6449441 -355.78219257 509.64689657 -377.9518714 509.63244683 C-380.31410058 509.63092092 -382.67632977 509.62940057 -385.03855896 509.62788582 C-386.20094228 509.627128 -387.36332561 509.62637019 -388.56093267 509.62558941 C-396.76796806 509.62083884 -404.97498694 509.62270348 -413.18202209 509.62695122 C-423.17821834 509.63186866 -433.17433873 509.62593484 -443.17051756 509.60605692 C-448.27461816 509.59615857 -453.37860304 509.5911071 -458.48270988 509.59894943 C-463.14960209 509.60597349 -467.81626015 509.59927893 -472.48312134 509.5813458 C-474.17687825 509.57727992 -475.87065629 509.57833669 -477.5644055 509.58486467 C-479.85632958 509.59294615 -482.14745145 509.58278788 -484.43932343 509.56781673 C-485.71545612 509.5667876 -486.99158881 509.56575848 -488.30639219 509.56469816 C-491.375 509.1875 -491.375 509.1875 -493.28467035 507.90763336 C-495.29221967 504.74046959 -494.7888143 500.91926892 -494.76318359 497.28149414 C-494.76844055 496.3706456 -494.77369751 495.45979706 -494.77911377 494.52134705 C-494.79233707 491.50494326 -494.78356665 488.48906558 -494.7734375 485.47265625 C-494.77545774 483.3790222 -494.77836876 481.28538884 -494.78213501 479.1917572 C-494.78656167 474.80102854 -494.78011688 470.41048281 -494.76611328 466.01977539 C-494.74903185 460.38930965 -494.75885396 454.75927322 -494.77683067 449.12882328 C-494.78766821 444.80428327 -494.7842221 440.47984512 -494.7764473 436.15530205 C-494.77444467 434.07924791 -494.77690676 432.00318456 -494.78388596 429.92714119 C-494.79149865 427.02547827 -494.77989807 424.12451143 -494.76318359 421.22290039 C-494.77229263 419.93308762 -494.77229263 419.93308762 -494.78158569 418.61721802 C-494.74423337 415.11977369 -494.70535043 412.80586535 -493.03823853 409.68528748 C-489.80464301 406.77335465 -486.48277742 407.06557753 -482.34301758 407.07397461 C-480.4554071 407.07415588 -480.4554071 407.07415588 -478.52966309 407.07434082 C-477.19295197 407.0793763 -475.85624134 407.08454287 -474.51953125 407.08984375 C-472.69585022 407.09135437 -472.69585022 407.09135437 -470.83532715 407.09289551 C-466.28604186 407.0981345 -461.73677 407.11209573 -457.1875 407.125 C-447.019375 407.145625 -436.85125 407.16625 -426.375 407.1875 C-426.375 385.0775 -426.375 362.9675 -426.375 340.1875 C-446.55419792 340.306165 -446.55419792 340.306165 -466.7331543 340.45776367 C-469.26350526 340.46652577 -471.79386045 340.47417036 -474.32421875 340.48046875 C-475.63733032 340.49581665 -476.95044189 340.51116455 -478.30334473 340.52697754 C-479.56151001 340.52734009 -480.81967529 340.52770264 -482.1159668 340.52807617 C-483.20628708 340.53473801 -484.29660736 340.54139984 -485.41996765 340.54826355 C-488.78761897 340.13712563 -490.66170617 339.19151896 -493.375 337.1875 C-495.04761869 333.84226262 -494.54057019 330.07463353 -494.55200195 326.39501953 C-494.55857315 325.48431702 -494.56514435 324.5736145 -494.57191467 323.63531494 C-494.5916685 320.61364669 -494.60331389 317.59202814 -494.61328125 314.5703125 C-494.61735678 313.54007839 -494.6214323 312.50984428 -494.62563133 311.44839096 C-494.64649932 305.99733428 -494.66079882 300.54630285 -494.67016602 295.09521484 C-494.68124197 289.45684415 -494.71565359 283.81886686 -494.75533772 278.18063545 C-494.78144322 273.85182953 -494.78985237 269.52311829 -494.79344749 265.19424057 C-494.79832787 263.11536878 -494.80998285 261.03650162 -494.82848549 258.95770645 C-494.85275158 256.05107387 -494.85193503 253.14547172 -494.8449707 250.23876953 C-494.85778076 249.3773233 -494.87059082 248.51587708 -494.88378906 247.62832642 C-494.8330678 241.83190519 -494.8330678 241.83190519 -492.59562683 238.68429565 C-488.13370584 235.6767737 -483.49049398 236.04748228 -478.26324463 236.06724548 C-477.43903291 236.06639106 -476.61482118 236.06553663 -475.76563334 236.06465632 C-473.00030906 236.06300752 -470.23504527 236.06851311 -467.46972656 236.07397461 C-465.48886618 236.07425664 -463.5080057 236.07409844 -461.52714539 236.0735321 C-456.14531336 236.07324474 -450.76350353 236.07913174 -445.38167667 236.08610606 C-439.75890782 236.09234963 -434.13613848 236.0929442 -428.5133667 236.09413147 C-417.86391362 236.09724182 -407.21447079 236.10545123 -396.56502223 236.11548096 C-384.44182414 236.12665127 -372.31862556 236.13215487 -360.1954236 236.13717639 C-335.25527672 236.14763408 -310.31513893 236.16522781 -285.375 236.1875 C-285.07036835 235.41433945 -284.76573669 234.64117889 -284.45187378 233.84458923 C-283.35545383 231.13927158 -282.10334046 228.59384628 -280.7578125 226.00390625 C-279.98074951 224.50670044 -279.98074951 224.50670044 -279.18798828 222.97924805 C-278.63095215 221.91359619 -278.07391602 220.84794434 -277.5 219.75 C-276.91847168 218.63471924 -276.33694336 217.51943848 -275.73779297 216.37036133 C-271.5848604 208.43338293 -267.34028262 200.5509513 -263.03100586 192.69799805 C-258.99639377 185.34346161 -255.01918217 177.95921696 -251.0625 170.5625 C-250.74865356 169.97596649 -250.43480713 169.38943298 -250.1114502 168.78512573 C-248.1869464 165.18828304 -246.26351482 161.5908679 -244.34039307 157.99328613 C-242.74178164 155.00305299 -241.14247831 152.01319029 -239.54296875 149.0234375 C-239.22851303 148.43550415 -238.91405731 147.8475708 -238.59007263 147.24182129 C-237.02235142 144.31156149 -235.45174706 141.38291831 -233.87768555 138.45605469 C-230.81287017 132.75658761 -227.77388915 127.04650395 -224.7890625 121.3046875 C-224.21365723 120.2105957 -223.63825195 119.11650391 -223.04541016 117.98925781 C-221.96796567 115.94019209 -220.90166155 113.88521104 -219.84912109 111.82324219 C-216.32412868 105.16557185 -212.54763949 100.60323865 -206 96.8125 C-199.17970985 95.18862139 -193.59885308 95.8361945 -187.375 99.1875 C-182.47631235 102.5444687 -179.46146974 106.85458437 -176.0625 111.625 C-174.8258652 113.33322437 -173.58751666 115.04020914 -172.34765625 116.74609375 C-171.70199707 117.63538574 -171.05633789 118.52467773 -170.39111328 119.44091797 C-166.99163799 124.07207528 -163.49478305 128.6280892 -160 133.1875 C-154.69440324 140.12038254 -149.43873706 147.07494828 -144.375 154.1875 C-132.64404456 147.01799047 -132.64404456 147.01799047 -123.375 137.1875 C-123.10337964 134.18235061 -123.10337964 134.18235061 -123.171875 130.75390625 C-123.15447266 128.8193457 -123.15447266 128.8193457 -123.13671875 126.84570312 C-123.12318378 124.14934384 -123.13639718 121.45642062 -123.16015625 118.75976562 C-123.03389091 108.95477599 -121.3046004 101.12632946 -114.91894531 93.43334961 C-113.515625 92.07421875 -113.515625 92.07421875 -110.625 89.875 C-109.59375 89.07707031 -108.5625 88.27914062 -107.5 87.45703125 C-103.16318569 84.30741986 -98.83216812 81.16551941 -94.375 78.1875 C-94.78492188 77.57261719 -95.19484375 76.95773438 -95.6171875 76.32421875 C-103.09032847 65.1145073 -103.09032847 65.1145073 -102.375 59.1875 C-98.53210171 54.76482208 -93.87984141 51.31157086 -89.25 47.75 C-88.46085205 47.13946777 -87.6717041 46.52893555 -86.85864258 45.89990234 C-80.54147423 41.03459086 -74.13872805 36.29159005 -67.70141602 31.58691406 C-61.6306951 27.14193678 -55.65290625 22.58498166 -49.6875 18 C-43.30386096 13.10703458 -36.87208328 8.3164002 -30.25 3.75 C-29.59298096 3.29536377 -28.93596191 2.84072754 -28.2590332 2.37231445 C-20.17294551 -3.12380788 -9.09186451 -3.96605743 0 0 Z M-26.125 23.3125 C-28.00404346 24.79574774 -29.88427547 26.27749087 -31.765625 27.7578125 C-32.70728516 28.50579102 -33.64894531 29.25376953 -34.61914062 30.02441406 C-38.63451389 33.17609789 -42.74778771 36.18473892 -46.875 39.1875 C-53.92459241 44.35185823 -60.91672316 49.58823785 -67.875 54.875 C-68.77798828 55.55884766 -69.68097656 56.24269531 -70.61132812 56.94726562 C-71.45115234 57.58728516 -72.29097656 58.22730469 -73.15625 58.88671875 C-73.89939453 59.45221436 -74.64253906 60.01770996 -75.40820312 60.6003418 C-77.6274322 62.33371503 -77.6274322 62.33371503 -80.375 65.1875 C-76.085 71.1275 -71.795 77.0675 -67.375 83.1875 C-63.38988522 81.59345409 -61.20118521 80.50844744 -57.9609375 77.984375 C-57.12755859 77.34113281 -56.29417969 76.69789062 -55.43554688 76.03515625 C-54.54931641 75.34292969 -53.66308594 74.65070313 -52.75 73.9375 C-50.85255723 72.47266892 -48.95409963 71.00915155 -47.0546875 69.546875 C-46.10045898 68.81146484 -45.14623047 68.07605469 -44.16308594 67.31835938 C-40.10757507 64.21884109 -35.99578158 61.19937855 -31.875 58.1875 C-24.79146038 52.99250204 -17.75285569 47.74081832 -10.75 42.4375 C-9.83025391 41.74527344 -8.91050781 41.05304687 -7.96289062 40.33984375 C-6.69348633 39.37498047 -6.69348633 39.37498047 -5.3984375 38.390625 C-4.26801025 37.53452637 -4.26801025 37.53452637 -3.11474609 36.66113281 C-0.63988532 34.56482919 -0.4030152 33.35909312 0.125 30.125 C-0.58515508 24.53252873 -3.55842398 21.21131092 -7.375 17.1875 C-15.13655589 13.30672205 -20.28833389 18.55317256 -26.125 23.3125 Z M-199.375 114.1875 C-206.6613827 126.9041137 -213.56752992 139.82093599 -220.46833801 152.74914551 C-223.7547082 158.90380899 -227.06364966 165.04624511 -230.375 171.1875 C-235.22176826 180.18033191 -240.05370863 189.18098546 -244.875 198.1875 C-249.71846713 207.2349461 -254.57119275 216.27731667 -259.4375 225.3125 C-260.00243164 226.36203857 -260.56736328 227.41157715 -261.14941406 228.49291992 C-263.86127714 233.52918188 -266.57704831 238.56326102 -269.3032074 243.59179688 C-270.28169102 245.39716064 -271.25906189 247.20312228 -272.23608398 249.00927734 C-273.46642602 251.28295324 -274.69890392 253.55547507 -275.93383789 255.82666016 C-276.48676514 256.84937012 -277.03969238 257.87208008 -277.609375 258.92578125 C-278.09631836 259.82337158 -278.58326172 260.72096191 -279.08496094 261.64575195 C-280.33867463 264.11592858 -281.38929097 266.60015927 -282.375 269.1875 C-279.60071016 271.49021906 -279.60071016 271.49021906 -276.69791317 270.94501305 C-275.61053136 270.71238573 -274.52314955 270.47975842 -273.40281677 270.24008179 C-272.1541684 269.97935883 -270.90552002 269.71863586 -269.61903381 269.45001221 C-268.23221836 269.14708364 -266.84545558 268.84391384 -265.45874023 268.54052734 C-264.00006623 268.23096452 -262.54115675 267.92250945 -261.08203125 267.61508179 C-257.10963923 266.77480333 -253.14074962 265.91893014 -249.17229342 265.06028318 C-245.00657963 264.16168321 -240.83786007 263.27725186 -236.66944885 262.39126587 C-228.75207693 260.70616247 -220.83754708 259.00807628 -212.92392451 257.30546248 C-203.99072826 255.38419047 -195.05433927 253.47798673 -186.1176995 251.57280803 C-148.21436927 243.52679635 -148.21436927 243.52679635 -110.375 235.1875 C-109.36815304 232.22386806 -109.36815304 232.22386806 -110.32446289 229.38256836 C-110.8271167 228.77034424 -111.32977051 228.15812012 -111.84765625 227.52734375 C-112.4106543 226.82569092 -112.97365234 226.12403809 -113.55371094 225.40112305 C-114.48618652 224.27444214 -114.48618652 224.27444214 -115.4375 223.125 C-116.73795767 221.50703874 -118.03606417 219.88718539 -119.33203125 218.265625 C-120.3387085 217.01168945 -120.3387085 217.01168945 -121.36572266 215.73242188 C-124.55730219 211.690013 -127.59177055 207.5368045 -130.625 203.375 C-136.09907101 195.89109187 -141.67597077 188.5016919 -147.375 181.1875 C-153.10451267 184.24930307 -158.04914712 187.89778917 -163.125 191.9375 C-164.72216056 193.18553045 -166.31981523 194.43292882 -167.91796875 195.6796875 C-170.5252664 197.72275607 -173.11300468 199.78430118 -175.67578125 201.8828125 C-180.61740546 205.78299115 -184.07521447 208.10421651 -190.5 207.76171875 C-192.85174975 207.04149539 -193.85328774 206.10220702 -195.375 204.1875 C-196.62584863 199.76142022 -196.41307684 197.26883455 -194.375 193.1875 C-192.65771484 191.52514648 -192.65771484 191.52514648 -190.5859375 190.05859375 C-189.81612549 189.50381348 -189.04631348 188.9490332 -188.25317383 188.37744141 C-187.01410278 187.50998291 -187.01410278 187.50998291 -185.75 186.625 C-184.03201334 185.3926778 -182.31457545 184.15959024 -180.59765625 182.92578125 C-179.72898926 182.30654785 -178.86032227 181.68731445 -177.96533203 181.04931641 C-173.9951062 178.1956932 -170.09033688 175.25727037 -166.1875 172.3125 C-164.86073848 171.31502249 -163.5339218 170.31761835 -162.20703125 169.3203125 C-161.27246094 168.61648437 -160.33789062 167.91265625 -159.375 167.1875 C-160.67548376 163.57107539 -162.21988901 160.80079466 -164.578125 157.7734375 C-165.22217285 156.93901123 -165.8662207 156.10458496 -166.52978516 155.24487305 C-167.22120605 154.35968994 -167.91262695 153.47450684 -168.625 152.5625 C-170.07681427 150.68198745 -171.52730767 148.8004545 -172.9765625 146.91796875 C-173.71036133 145.96583496 -174.44416016 145.01370117 -175.20019531 144.03271484 C-179.09740424 138.93414358 -182.88753511 133.75769831 -186.68066406 128.58154297 C-187.72974873 127.1499596 -188.7804549 125.71956266 -189.83300781 124.29052734 C-190.90882962 122.82328082 -191.97517376 121.34905832 -193.03417969 119.86962891 C-193.56688477 119.13534668 -194.09958984 118.40106445 -194.6484375 117.64453125 C-195.36265869 116.64836792 -195.36265869 116.64836792 -196.09130859 115.63208008 C-196.51492676 115.15536865 -196.93854492 114.67865723 -197.375 114.1875 C-198.035 114.1875 -198.695 114.1875 -199.375 114.1875 Z M-476.375 254.1875 C-476.375 259.7975 -476.375 265.4075 -476.375 271.1875 C-474.97765625 271.21328125 -473.5803125 271.2390625 -472.140625 271.265625 C-470.30205217 271.32190784 -468.46351172 271.37925514 -466.625 271.4375 C-465.70460938 271.45167969 -464.78421875 271.46585937 -463.8359375 271.48046875 C-457.03336645 271.72693872 -457.03336645 271.72693872 -453.76171875 274.015625 C-451.72297425 277.2087009 -451.9118134 279.48200724 -452.375 283.1875 C-453.71654767 285.73644057 -454.45888573 286.89979569 -457.22753906 287.76928711 C-459.33611692 288.17992761 -461.34039162 288.39021016 -463.484375 288.50390625 C-464.16467773 288.54201416 -464.84498047 288.58012207 -465.54589844 288.61938477 C-466.39700195 288.66248779 -467.24810547 288.70559082 -468.125 288.75 C-472.20875 288.9665625 -472.20875 288.9665625 -476.375 289.1875 C-476.375 300.0775 -476.375 310.9675 -476.375 322.1875 C-437.435 322.1875 -398.495 322.1875 -358.375 322.1875 C-358.375 299.7475 -358.375 277.3075 -358.375 254.1875 C-397.315 254.1875 -436.255 254.1875 -476.375 254.1875 Z M-340.375 254.1875 C-340.375 276.6275 -340.375 299.0675 -340.375 322.1875 C-301.105 322.1875 -261.835 322.1875 -221.375 322.1875 C-221.375 307.3375 -221.375 292.4875 -221.375 277.1875 C-229.27675034 278.4031539 -236.96659778 279.64357327 -244.734375 281.38671875 C-246.61054549 281.79552627 -248.48685167 282.20371147 -250.36328125 282.61132812 C-253.25653802 283.24368959 -256.14861977 283.8802904 -259.03857422 284.52758789 C-261.87203931 285.16008765 -264.70892782 285.77468971 -267.546875 286.38671875 C-268.40021423 286.58246994 -269.25355347 286.77822113 -270.13275146 286.97990417 C-277.71449331 288.59035946 -285.06451942 288.7870853 -291.8046875 284.4921875 C-295.75542097 281.2097373 -298.4028004 277.23508178 -299.375 272.1875 C-300.03056726 264.58291975 -298.52356535 262.05891337 -295.375 254.1875 C-310.225 254.1875 -325.075 254.1875 -340.375 254.1875 Z M-137.92578125 258.08984375 C-139.78181421 258.49373514 -141.63845648 258.8948352 -143.49565125 259.29335022 C-148.26697005 260.32503005 -153.0289308 261.39458046 -157.78979492 262.47332764 C-162.68699995 263.5746727 -167.5930419 264.63521974 -172.49804688 265.70117188 C-179.61540243 267.25539965 -186.73035818 268.81976161 -193.8371582 270.42163086 C-194.94553795 270.66870789 -194.94553795 270.66870789 -196.0763092 270.92077637 C-199.82671409 271.75494943 -199.82671409 271.75494943 -203.375 273.1875 C-203.375 289.3575 -203.375 305.5275 -203.375 322.1875 C-164.435 322.1875 -125.495 322.1875 -85.375 322.1875 C-85.375 299.7475 -85.375 277.3075 -85.375 254.1875 C-112.23071026 254.06116259 -112.23071026 254.06116259 -137.92578125 258.08984375 Z M-408.375 340.1875 C-408.375 362.2975 -408.375 384.4075 -408.375 407.1875 C-369.435 407.1875 -330.495 407.1875 -290.375 407.1875 C-290.375 385.0775 -290.375 362.9675 -290.375 340.1875 C-329.315 340.1875 -368.255 340.1875 -408.375 340.1875 Z M-272.375 340.1875 C-272.375 362.2975 -272.375 384.4075 -272.375 407.1875 C-233.105 407.1875 -193.835 407.1875 -153.375 407.1875 C-153.375 385.0775 -153.375 362.9675 -153.375 340.1875 C-192.645 340.1875 -231.915 340.1875 -272.375 340.1875 Z M-135.375 340.1875 C-135.375 362.2975 -135.375 384.4075 -135.375 407.1875 C-96.435 407.1875 -57.495 407.1875 -17.375 407.1875 C-17.375 385.0775 -17.375 362.9675 -17.375 340.1875 C-56.315 340.1875 -95.255 340.1875 -135.375 340.1875 Z M-476.375 425.1875 C-476.375 447.2975 -476.375 469.4075 -476.375 492.1875 C-437.435 492.1875 -398.495 492.1875 -358.375 492.1875 C-358.375 470.0775 -358.375 447.9675 -358.375 425.1875 C-397.315 425.1875 -436.255 425.1875 -476.375 425.1875 Z M-340.375 425.1875 C-340.375 447.2975 -340.375 469.4075 -340.375 492.1875 C-301.105 492.1875 -261.835 492.1875 -221.375 492.1875 C-221.375 470.0775 -221.375 447.9675 -221.375 425.1875 C-260.645 425.1875 -299.915 425.1875 -340.375 425.1875 Z M-203.375 425.1875 C-203.375 447.2975 -203.375 469.4075 -203.375 492.1875 C-164.435 492.1875 -125.495 492.1875 -85.375 492.1875 C-85.375 470.0775 -85.375 447.9675 -85.375 425.1875 C-124.315 425.1875 -163.255 425.1875 -203.375 425.1875 Z " fill="#000000" transform="translate(494.375,2.8125)"/>
<path d="M0 0 C1.40892517 -0.00574036 1.40892517 -0.00574036 2.84631348 -0.01159668 C4.83000766 -0.01431576 6.8137377 -0.00695484 8.79736328 0.00976562 C11.83317016 0.03117539 14.86661046 0.00996393 17.90234375 -0.015625 C19.83073439 -0.01298172 21.75912356 -0.00785675 23.6875 0 C24.59487915 -0.00809692 25.5022583 -0.01619385 26.43713379 -0.02453613 C32.71643049 0.06886404 32.71643049 0.06886404 35.9140625 2.42578125 C38.33357783 5.98894727 38.11196074 9.39356046 37.34375 13.53125 C35.14543636 16.56340675 33.89411806 17.34779398 30.34375 18.53125 C27.60999825 18.65220436 24.90253862 18.71937986 22.16796875 18.734375 C20.96380058 18.74292511 20.96380058 18.74292511 19.73530579 18.75164795 C18.03652257 18.76109039 16.3377211 18.76762893 14.63891602 18.77148438 C12.05126624 18.78117504 9.46441604 18.81219858 6.87695312 18.84375 C5.22396303 18.85028201 3.57096728 18.85553171 1.91796875 18.859375 C1.14901779 18.8717218 0.38006683 18.8840686 -0.41218567 18.89678955 C-5.22653985 18.8770144 -8.46056602 18.14146999 -12.65625 15.53125 C-14.82847379 12.88680365 -14.65518321 11.50137982 -14.53125 8.03125 C-12.4695522 -0.2155412 -7.41956104 -0.06620785 0 0 Z " fill="#000000" transform="translate(73.65625,273.46875)"/>
</svg>
