<?xml version="1.0" encoding="UTF-8"?>
<svg version="1.1" xmlns="http://www.w3.org/2000/svg" width="512" height="512">
<path d="M0 0 C0.83802824 -0.00465992 1.67605649 -0.00931984 2.53947952 -0.01412097 C5.36034008 -0.02611492 8.1807229 -0.01665859 11.00158787 -0.00736332 C13.03928136 -0.01153431 15.07697253 -0.01701052 17.11465937 -0.02368313 C22.72420242 -0.03818726 28.33359917 -0.03387752 33.9431504 -0.02651632 C39.98891938 -0.02179923 46.03465604 -0.03428153 52.08041477 -0.04453373 C63.24309685 -0.06075957 74.4057334 -0.06316111 85.56842104 -0.05822874 C95.88068872 -0.0536743 106.19293899 -0.05426732 116.50520611 -0.06006908 C117.8876492 -0.06082594 119.2700923 -0.06158192 120.6525354 -0.06233703 C122.73566659 -0.0634822 124.81879777 -0.06463208 126.90192895 -0.06579627 C146.27299701 -0.07650379 165.64405925 -0.08122393 185.01512909 -0.07332611 C185.74558067 -0.07302894 186.47603225 -0.07273176 187.22861872 -0.07242559 C193.1606752 -0.06997657 199.0927316 -0.06736502 205.024788 -0.06474145 C228.1662165 -0.05463812 251.30757244 -0.06299502 274.44899082 -0.086236 C300.44036409 -0.11229687 326.43169368 -0.1251597 352.4230805 -0.11804825 C355.19340614 -0.11733217 357.96373178 -0.11665779 360.73405743 -0.1160078 C361.41619672 -0.115838 362.09833602 -0.11566819 362.80114621 -0.11549323 C373.10684724 -0.11318841 383.41250778 -0.12117595 393.71819973 -0.13429928 C405.43581623 -0.14919382 417.15335397 -0.14970079 428.87097424 -0.13222837 C434.85242798 -0.12368835 440.83370005 -0.1216419 446.81514454 -0.13687992 C452.28707906 -0.15064768 457.75867492 -0.14606624 463.23058946 -0.12664068 C465.21370893 -0.12285596 467.19685502 -0.12587314 469.17995095 -0.13625234 C471.86945888 -0.14933155 474.55778215 -0.13792031 477.24723816 -0.12025452 C478.02259349 -0.12990503 478.79794882 -0.13955554 479.59679976 -0.14949849 C484.77779529 -0.07931299 487.75824532 1.01146933 491.68653965 4.38031673 C494.41800819 7.92761489 495.0620763 10.47913075 495.06685638 14.91388512 C495.07529633 16.02089317 495.08373627 17.12790122 495.09243196 18.26845497 C495.08642192 19.4793377 495.08041187 20.69022044 495.0742197 21.93779659 C495.08229801 23.87345851 495.08229801 23.87345851 495.09053952 25.8482247 C495.10501117 29.42831397 495.10074413 33.00817337 495.0933727 36.58827531 C495.08864756 40.4499827 495.10114507 44.31163989 495.11139011 48.17333126 C495.12859625 55.73796384 495.12941438 63.30251342 495.12417721 70.86716049 C495.12013769 77.01497756 495.12157647 83.16277008 495.12692547 89.31058598 C495.12767389 90.18519034 495.12842231 91.05979471 495.12919341 91.96090223 C495.13072487 93.73759218 495.13226322 95.51428212 495.13380838 97.29097206 C495.14753996 113.95669487 495.14209109 130.62237076 495.13062317 147.2880925 C495.12068981 162.53830382 495.13363205 177.78839383 495.15755736 193.03858643 C495.18193351 208.69397813 495.19155991 224.3493133 495.18490463 240.00472361 C495.18140914 248.79546865 495.18366621 257.58612037 495.20115566 266.37685108 C495.21585908 273.86013095 495.21653751 281.34325179 495.19908475 288.82652848 C495.190557 292.64503362 495.18846817 296.46325445 495.20373631 300.28174496 C495.22007831 304.42001282 495.20547169 308.55759128 495.18774509 312.69585323 C495.1973501 313.90450525 495.20695511 315.11315726 495.21685117 316.35843509 C495.16118627 322.65197783 495.00360414 326.63938921 490.68653965 331.38031673 C486.88193509 334.38485007 484.03036935 334.74921513 479.2439127 334.72089291 C477.96296223 334.72066631 476.68201176 334.72043972 475.36224461 334.72020626 C473.97424561 334.70488866 472.58625022 334.68924071 471.1982584 334.67328548 C469.77051331 334.66768599 468.34276243 334.66341756 466.9150095 334.66042233 C463.16825877 334.64900123 459.42186029 334.61955814 455.67524815 334.58631039 C451.84768024 334.55555015 448.02005507 334.54190431 444.19239902 334.52680111 C436.69028581 334.49468535 429.1884622 334.4435227 421.68653965 334.38031673 C421.71796055 335.92356625 421.71796055 335.92356625 421.75001621 337.49799252 C421.82268959 341.33329886 421.86843786 345.16854495 421.90626621 349.00434017 C421.92631974 350.66101998 421.95356994 352.31762955 421.98829746 353.97406673 C422.03709477 356.36226431 422.05957029 358.74952221 422.07716465 361.13812923 C422.09780979 361.8727438 422.11845493 362.60735836 422.13972569 363.36423397 C422.14195587 368.53342908 420.93747958 371.4008016 417.68653965 375.38031673 C412.46394108 379.43662072 407.03313823 379.15429217 400.68653965 378.38031673 C396.17319701 376.24241759 393.74368639 373.92769374 391.68653965 369.38031673 C390.78042166 365.02456432 390.56922621 360.89315353 390.5888834 356.45062923 C390.59210606 355.16156673 390.59532871 353.87250423 390.59864902 352.54437923 C390.60700232 351.19802438 390.61546724 349.85167021 390.62403965 348.50531673 C390.62906135 347.13552669 390.63362308 345.76573488 390.63771152 344.39594173 C390.64946711 341.05735484 390.66590001 337.71885858 390.68653965 334.38031673 C390.02723894 334.38400391 389.36793823 334.38769108 388.68865871 334.39148998 C372.63876472 334.47986712 356.58895548 334.54603893 340.53887844 334.58756542 C332.7771375 334.60818165 325.01555908 334.6362841 317.25392246 334.68207455 C310.48805447 334.72197131 303.72230419 334.74775639 296.95632184 334.75667071 C293.37446431 334.76188073 289.79294353 334.77410601 286.21119404 334.80323696 C282.21047436 334.83551087 278.21033833 334.83627434 274.20948887 334.8344183 C272.43247845 334.85598995 272.43247845 334.85598995 270.61956882 334.8779974 C264.52906683 334.84737622 260.32523577 334.786198 255.68653965 330.38031673 C252.75051704 326.63594031 252.30579682 323.82719845 252.28248692 319.1247015 C252.26346066 317.26235615 252.26346066 317.26235615 252.24405003 315.36238766 C252.24610169 314.01549773 252.2490899 312.66860895 252.2529459 311.32172298 C252.24838108 309.93076479 252.24307461 308.53980885 252.2370615 307.14885616 C252.22814188 304.2378792 252.23053998 301.32717675 252.24049473 298.41620541 C252.25198069 294.6959735 252.23177429 290.97669134 252.20257759 287.25658417 C252.18418163 284.38511345 252.18451473 281.5138689 252.19021511 278.64235401 C252.19036793 277.27129376 252.18435643 275.90021779 252.17192364 274.52921391 C252.06838711 261.24018489 252.06838711 261.24018489 256.68653965 256.38031673 C261.90913822 252.32401275 267.33994107 252.6063413 273.68653965 253.38031673 C278.19988229 255.51821588 280.62939291 257.83293973 282.68653965 262.38031673 C284.98877776 276.19374537 283.68653965 290.37634904 283.68653965 304.38031673 C343.08653965 304.05031673 402.48653965 303.72031673 463.68653965 303.38031673 C463.68653965 213.29031673 463.68653965 123.20031673 463.68653965 30.38031673 C403.29653965 30.38031673 342.90653965 30.38031673 280.68653965 30.38031673 C280.84488422 80.41763422 280.84488422 80.41763422 281.04689121 130.45477962 C281.06495762 140.13507748 281.06495762 140.13507748 281.06831455 144.66765499 C281.0720394 147.8316283 281.08702183 150.99533282 281.1088419 154.15923214 C281.13632659 158.19815106 281.14449555 162.23668047 281.13882875 166.27568424 C281.14001329 167.75600009 281.14791719 169.23632989 281.16340017 170.71656525 C281.3010631 184.52176882 281.3010631 184.52176882 276.68653965 190.38031673 C272.18464257 193.9951405 268.14806268 193.88265519 262.56935215 193.73187923 C258.66547475 193.25579662 256.52923574 192.07723354 253.68653965 189.38031673 C249.88623746 184.26956552 249.56104301 179.34482254 249.56628513 173.12242794 C249.56490764 171.86445746 249.56353014 170.60648699 249.5621109 169.31039619 C249.56565728 167.91858237 249.56929517 166.52676878 249.57301426 165.13495541 C249.57332072 163.64251267 249.57318689 162.15006978 249.572649 160.65762711 C249.57242349 156.66542055 249.5782142 152.67324405 249.58525944 148.68104458 C249.59095954 144.93321801 249.59122284 141.18539869 249.59193516 137.43756771 C249.59717992 126.48098008 249.61114109 115.52439803 249.62403965 104.56781673 C249.64466465 80.08594173 249.66528965 55.60406673 249.68653965 30.38031673 C171.47653965 30.38031673 93.26653965 30.38031673 12.68653965 30.38031673 C12.68653965 139.61031673 12.68653965 248.84031673 12.68653965 361.38031673 C64.16653965 361.38031673 115.64653965 361.38031673 168.68653965 361.38031673 C177.25796822 367.09460245 177.25796822 367.09460245 178.68653965 371.38031673 C179.19358449 376.67519478 179.33501706 381.03532654 176.99903965 385.88031673 C172.84389618 390.37236373 168.85706549 392.24493372 162.80489063 392.50336456 C161.68030319 392.50244277 160.55571575 392.50152098 159.3970499 392.50057125 C158.10418568 392.50194592 156.81132145 392.50332058 155.47927952 392.5047369 C154.04869152 392.50119797 152.61810375 392.49756316 151.18751621 392.49384212 C149.67955623 392.49356002 148.17159611 392.49371844 146.66363621 392.49428463 C142.57101637 392.4945717 138.4784258 392.48868953 134.38581276 392.48171067 C130.10835067 392.47546213 125.83088792 392.47487214 121.55342197 392.47368526 C113.45391699 392.47057638 105.35442549 392.46236895 97.25492644 392.45233577 C86.30972693 392.43907164 75.36452373 392.43367115 64.4193182 392.42783356 C47.17504858 392.41842878 29.93080742 392.39850689 12.68653965 392.38031673 C12.68653965 422.08031673 12.68653965 451.78031673 12.68653965 482.38031673 C137.09653965 482.38031673 261.50653965 482.38031673 389.68653965 482.38031673 C389.68653965 470.83031673 389.68653965 459.28031673 389.68653965 447.38031673 C394.44268863 440.24609326 394.44268863 440.24609326 398.68653965 438.38031673 C404.23462569 437.55146404 409.15794848 437.65624723 414.24903965 440.06781673 C417.41948236 443.07567264 419.43987642 445.67078044 420.0742197 450.06719112 C420.08232418 451.51564167 420.08232418 451.51564167 420.09059238 452.99335384 C420.10961864 454.6454813 420.10961864 454.6454813 420.12902927 456.33098507 C420.12462582 458.1014394 420.12462582 458.1014394 420.1201334 459.90766048 C420.12537525 461.12933422 420.1306171 462.35100796 420.1360178 463.60970211 C420.14243591 466.19102882 420.14110378 468.77238478 420.13258457 471.35370541 C420.12407815 475.29995551 420.15283652 479.24475658 420.18458652 483.19086361 C420.18619873 485.7006288 420.18562064 488.21039655 420.1826334 490.72016048 C420.19386738 491.89843914 420.20510136 493.0767178 420.21667576 494.29070187 C420.16463286 500.41855065 420.12510709 504.71851476 415.68653965 509.38031673 C411.58695031 512.41550786 408.5977259 512.75653103 403.5443821 512.76063347 C402.47728177 512.76762335 402.47728177 512.76762335 401.38862386 512.77475443 C398.9984895 512.78673056 396.60892085 512.77729919 394.21878147 512.76799679 C392.49044747 512.77216857 390.76211621 512.77764522 389.03379005 512.7843166 C384.27935669 512.7988104 379.5250961 512.79451422 374.77065313 512.78714979 C369.64513562 512.78243014 364.51965615 512.79491727 359.39415073 512.8051672 C349.3509866 512.82238408 339.30788496 512.82318924 329.2647099 512.81795429 C321.10364137 512.81391681 312.94259134 512.81535113 304.7815237 512.82070255 C303.62105713 512.82145097 302.46059056 512.8221994 301.26495833 512.8229705 C298.90765739 512.82450194 296.55035644 512.82604028 294.1930555 512.82758547 C272.07501893 512.84132091 249.9570177 512.83586543 227.83898192 512.82440025 C207.59339043 512.81446631 187.34789032 512.82740951 167.10231293 512.85133445 C146.32570814 512.87570238 125.54914595 512.88533902 104.77252716 512.87868172 C93.1033862 512.87518443 81.43431554 512.87745516 69.76518536 512.89493275 C59.83169597 512.9096259 49.89832637 512.91032801 39.96483941 512.89286184 C34.89474415 512.88432572 29.82486317 512.88226584 24.75477886 512.89751339 C20.11551329 512.91129284 15.47664691 512.90668467 10.83740484 512.88727415 C9.15710992 512.88349303 7.47678354 512.88649649 5.79651649 512.8968858 C3.51537318 512.90998992 1.23562111 512.89853294 -1.04546165 512.88088799 C-2.31329552 512.88078065 -3.58112938 512.88067331 -4.88738245 512.88056272 C-9.95173273 512.1411105 -12.92357954 510.0548801 -16.16469055 506.14990801 C-17.70209248 502.44335602 -17.72796407 499.01290538 -17.69377708 495.06685638 C-17.70076696 493.80981402 -17.70076696 493.80981402 -17.70789805 492.52737686 C-17.719892 489.7065163 -17.71043567 486.88613349 -17.7011404 484.06526852 C-17.70531139 482.02757502 -17.71078761 479.98988385 -17.71746022 477.95219702 C-17.73196434 472.34265396 -17.7276546 466.73325721 -17.7202934 461.12370598 C-17.71557631 455.077937 -17.72805861 449.03220034 -17.73831081 442.98644161 C-17.75453665 431.82375954 -17.75693819 420.66112299 -17.75200582 409.49843535 C-17.74745138 399.18616766 -17.74804441 388.8739174 -17.75384617 378.56165028 C-17.75460303 377.17920718 -17.75535901 375.79676408 -17.75611411 374.41432099 C-17.75725929 372.3311898 -17.75840916 370.24805861 -17.75957336 368.16492743 C-17.77028087 348.79385937 -17.77500101 329.42279713 -17.7671032 310.05172729 C-17.76680602 309.32127572 -17.76650885 308.59082414 -17.76620267 307.83823767 C-17.76375365 301.90618119 -17.76114211 295.97412478 -17.75851854 290.04206838 C-17.74841521 266.90063988 -17.75677211 243.75928394 -17.78001308 220.61786556 C-17.80607395 194.62649229 -17.81893678 168.63516271 -17.81182534 142.64377588 C-17.81110926 139.87345025 -17.81043487 137.10312461 -17.80978489 134.33279896 C-17.80961508 133.65065966 -17.80944527 132.96852036 -17.80927032 132.26571018 C-17.80696549 121.96000914 -17.81495304 111.65434861 -17.82807636 101.34865665 C-17.8429709 89.63104015 -17.84347787 77.91350241 -17.82600545 66.19588215 C-17.81746543 60.21442841 -17.81541899 54.23315634 -17.83065701 48.25171185 C-17.84442476 42.77977732 -17.83984333 37.30818146 -17.82041777 31.83626693 C-17.81663304 29.85314745 -17.81965022 27.87000136 -17.83002942 25.88690544 C-17.84310863 23.1973975 -17.83169739 20.50907423 -17.8140316 17.81961823 C-17.82368211 17.0442629 -17.83333263 16.26890757 -17.84327558 15.47005662 C-17.77309007 10.2890611 -16.68230776 7.30861106 -13.31346035 3.38031673 C-9.18461124 -0.04661129 -5.15512038 -0.0446619 0 0 Z " fill="#000000" transform="translate(17.31346035003662,-0.38031673431396484)"/>
</svg>
