<?xml version="1.0" encoding="UTF-8"?>
<svg version="1.1" xmlns="http://www.w3.org/2000/svg" width="512" height="512">
<path d="M0 0 C0.99238068 -0.00382555 1.98476136 -0.00765109 3.00721419 -0.01159257 C6.30634773 -0.02184632 9.60530476 -0.01794497 12.90444946 -0.01396179 C15.28051412 -0.01831248 17.65657737 -0.02349681 20.03263855 -0.02944946 C26.46861314 -0.04281209 32.90452891 -0.04342118 39.34051466 -0.04088616 C43.36525412 -0.03959985 47.38998477 -0.04223037 51.41472244 -0.04587364 C52.08431565 -0.04646883 52.75390886 -0.04706402 53.44379277 -0.04767724 C54.80437965 -0.04888908 56.16496654 -0.05010322 57.52555342 -0.05131962 C70.26521237 -0.0621786 83.00484481 -0.06004044 95.74450524 -0.05393478 C107.37877703 -0.04876685 119.01296507 -0.06002068 130.6472203 -0.07903299 C142.61669409 -0.09844194 154.58612831 -0.10666206 166.55561793 -0.10290974 C173.26619888 -0.10100236 179.97669802 -0.10370736 186.6872673 -0.11762428 C192.99925997 -0.13022545 199.31108531 -0.1282367 205.62307549 -0.11521339 C207.93367635 -0.1128531 210.24428907 -0.11556259 212.55487633 -0.12383652 C231.22940882 -0.18586311 246.13863775 0.56756814 260.32485962 13.90522766 C269.14890476 22.83291092 273.79183324 32.97523632 273.76651001 45.61152649 C273.76643448 46.87245621 273.76635895 48.13338593 273.76628113 49.43252563 C273.7611753 50.79842672 273.75595932 52.16432739 273.75064087 53.53022766 C273.74877432 54.93555653 273.74735154 56.34088606 273.74635315 57.74621582 C273.74254662 61.43363766 273.73273236 65.12101971 273.72164917 68.8084259 C273.71139487 72.57571372 273.70684693 76.34300801 273.70181274 80.11030579 C273.69110832 87.49378741 273.67405442 94.87723632 273.65298462 102.26069641 C274.91376831 102.24772522 276.174552 102.23475403 277.47354126 102.22138977 C286.95095134 102.12388431 294.94949316 106.85833835 301.65298462 113.26069641 C312.3605614 124.75700094 312.25418207 137.14720879 312.18423462 152.01069641 C312.18693354 154.03511237 312.19081928 156.05952705 312.1958313 158.0839386 C312.2017075 162.31355713 312.19322409 166.54283628 312.17446899 170.77241516 C312.15168077 176.17240926 312.16481395 181.57160791 312.18875885 186.97157288 C312.20326769 191.14796353 312.19858756 195.32416807 312.18824768 199.50056458 C312.18559444 201.49071855 312.18880034 203.48088986 312.19816589 205.47102356 C312.2712159 225.35323698 312.2712159 225.35323698 307.65298462 233.26069641 C307.05485962 234.31257141 306.45673462 235.36444641 305.84048462 236.44819641 C298.9637464 245.28971697 290.84310613 251.06922905 279.65298462 253.26069641 C275.69210677 253.56871458 271.74173697 253.58849176 267.77017212 253.59663391 C266.07152512 253.60661911 266.07152512 253.60661911 264.33856201 253.61680603 C261.95331439 253.62689934 259.56803873 253.63162408 257.18276978 253.63130188 C253.53304929 253.63569032 249.88452394 253.67208879 246.23501587 253.70991516 C243.91340541 253.7157809 241.59178923 253.71975192 239.27017212 253.72163391 C238.1805014 253.73600494 237.09083069 253.75037598 235.96813965 253.7651825 C228.415441 253.71953534 228.415441 253.71953534 224.4894104 251.35688782 C221.5782305 248.03391645 221.52989141 246.14501374 221.53945923 241.80122375 C221.53953476 240.66019196 221.53961029 239.51916016 221.53968811 238.34355164 C221.5448494 237.10706879 221.55001068 235.87058594 221.55532837 234.59663391 C221.55745079 232.70311691 221.55745079 232.70311691 221.55961609 230.77134705 C221.56427384 227.41431342 221.57326054 224.05734741 221.58432007 220.70033264 C221.59454692 217.27514735 221.59911644 213.84995507 221.60415649 210.42475891 C221.61520224 203.70338598 221.63195268 196.9820451 221.65298462 190.26069641 C220.70415311 190.26438358 219.7553216 190.26807076 218.77773762 190.27186966 C195.70153965 190.36062733 172.6253638 190.42638013 149.54903126 190.4679451 C138.38952891 190.48857935 127.23013925 190.5167165 116.07070923 190.56245422 C106.34531333 190.60229549 96.61999904 190.62812295 86.8945238 190.63705039 C81.74387333 190.64226971 76.59345634 190.65455505 71.44288063 190.68361664 C66.5960967 190.71074285 61.7496427 190.71914703 56.90279007 190.71312714 C55.12299622 190.71422862 53.34319147 190.72219914 51.56346321 190.73751831 C49.13442662 190.75740292 46.70663773 190.75264181 44.27757263 190.74171448 C43.5723114 190.75336584 42.86705018 190.76501721 42.1404174 190.77702165 C37.38746335 190.71917567 34.99365638 189.61573863 31.65298462 186.26069641 C30.26304382 183.48081481 30.46810258 181.34206381 30.65298462 178.26069641 C31.47732842 175.78766502 32.09134154 174.64843395 34.23571873 173.16803551 C37.65902728 171.88307066 40.97272697 171.97840624 44.57923889 171.99327087 C45.38358858 171.98873976 46.18793826 171.98420865 47.01666218 171.97954023 C49.71507461 171.96686799 52.41328594 171.9685184 55.11172485 171.97016907 C57.04506694 171.96418564 58.97840663 171.95738053 60.91174316 171.94981384 C66.16581944 171.93212924 71.41983059 171.92745747 76.67393374 171.92618227 C81.05778921 171.92428432 85.44162947 171.9169281 89.82547909 171.90983808 C100.16618212 171.89354771 110.50685031 171.88866978 120.8475647 171.89009094 C131.52105263 171.89129304 142.19433858 171.87017909 152.86777538 171.83860362 C162.02710373 171.81247113 171.18636597 171.80172235 180.34573132 171.80300176 C185.81822594 171.80351222 191.29054103 171.79778251 196.76299858 171.77664566 C201.90862401 171.75731391 207.0538977 171.75710409 212.19953537 171.77167892 C214.08897349 171.77377432 215.97843333 171.76902285 217.86783409 171.75695801 C220.4455545 171.74156274 223.02205334 171.75077513 225.5997467 171.76622009 C226.34897083 171.75593297 227.09819496 171.74564584 227.87012285 171.73504698 C232.7396165 171.79960874 235.23863895 172.78844505 238.65298462 176.26069641 C239.96059354 178.87591426 239.77296009 180.79183042 239.76651001 183.72016907 C239.76643448 184.86120087 239.76635895 186.00223267 239.76628113 187.17784119 C239.76111984 188.41432404 239.75595856 189.65080688 239.75064087 190.92475891 C239.74851845 192.81827591 239.74851845 192.81827591 239.74635315 194.75004578 C239.7416954 198.1070794 239.7327087 201.46404542 239.72164917 204.82106018 C239.71142232 208.24624548 239.7068528 211.67143775 239.70181274 215.09663391 C239.690767 221.81800684 239.67401655 228.53934772 239.65298462 235.26069641 C244.91888754 235.21632942 250.18361576 235.14627402 255.44888306 235.05317688 C257.23719902 235.02508308 259.02563648 235.00381127 260.81411743 234.98970032 C263.39645064 234.9681089 265.97734081 234.92137932 268.55923462 234.87007141 C269.74410461 234.86822845 269.74410461 234.86822845 270.95291138 234.86634827 C277.49649847 234.69661238 282.7644755 232.80938093 287.71157837 228.44429016 C288.16661743 227.86807922 288.62165649 227.29186829 289.09048462 226.69819641 C289.80011353 225.83001282 289.80011353 225.83001282 290.52407837 224.94429016 C293.18383957 220.97765668 292.82745067 216.7487213 292.86172485 212.16841125 C292.87150864 211.34362274 292.88129242 210.51883423 292.89137268 209.66905212 C292.92130976 206.93659573 292.9427108 204.20418838 292.96157837 201.47163391 C292.97143611 200.06941023 292.97143611 200.06941023 292.981493 198.6388588 C293.01408378 193.68778751 293.0385319 188.73673767 293.05801392 183.78559875 C293.0758043 179.69608565 293.11058841 175.60726502 293.16055298 171.51802063 C293.22089056 166.57372668 293.2515086 161.63007319 293.2611866 156.68542862 C293.26972154 154.80601678 293.28849108 152.92662114 293.31793022 151.0474205 C293.81604742 138.10902778 293.81604742 138.10902778 288.29689026 126.78845215 C281.81413004 120.76373037 275.06693117 120.66079927 266.52798462 120.82319641 C265.46966431 120.81610657 264.41134399 120.80901672 263.32095337 120.80171204 C257.64199488 120.84802726 253.58603943 121.16374667 248.65298462 124.26069641 C247.16798462 124.75569641 247.16798462 124.75569641 245.65298462 125.26069641 C244.55129478 126.95838876 244.55129478 126.95838876 243.65298462 129.26069641 C242.87954712 130.65288391 242.87954712 130.65288391 242.09048462 132.07319641 C239.92313353 136.99801895 240.2373482 142.44853025 240.15689087 147.73725891 C239.57920539 151.77657905 238.49817267 153.39955403 235.65298462 156.26069641 C232.79974025 157.6873186 230.81843913 157.57103509 227.65298462 157.26069641 C224.953078 155.46075867 223.11109812 154.17692341 221.65298462 151.26069641 C220.75400558 137.12756687 221.74878766 125.48838681 231.33267212 114.29975891 C238.43736851 106.62440417 245.44122478 103.44152873 255.65298462 102.26069641 C255.614755 94.47970072 255.55514561 86.69917819 255.46908188 78.91858101 C255.4297618 75.30473784 255.3974985 71.69113267 255.38198853 68.07710266 C255.36671858 64.58194264 255.33209446 61.08743765 255.2846756 57.59257126 C255.26286438 55.62650817 255.26051981 53.6602597 255.25863647 51.69407654 C255.10732795 42.3286351 253.8492076 34.49872351 247.40298462 27.38569641 C241.15755565 21.70316018 234.32455351 19.17038613 225.91365051 19.10247803 C224.52762634 19.0877948 224.52762634 19.0877948 223.11360168 19.07281494 C222.11234756 19.06705948 221.11109344 19.06130402 220.07949829 19.05537415 C218.48369431 19.04052475 218.48369431 19.04052475 216.85565186 19.02537537 C213.34410822 18.99382333 209.83255107 18.96902774 206.32095337 18.94429016 C203.88428905 18.92371521 201.44762827 18.90271859 199.01097107 18.88131714 C192.60114398 18.82615245 186.19128497 18.77671842 179.78140259 18.72846985 C173.23921879 18.67821395 166.69708126 18.62254922 160.15493774 18.56733704 C147.32099318 18.45982397 134.48700908 18.35818007 121.65298462 18.26069641 C121.66297737 20.06354599 121.66297737 20.06354599 121.673172 21.90281677 C121.73400029 33.23235078 121.7789656 44.56185163 121.80842113 55.89151192 C121.82407362 61.71614007 121.84530456 67.54063634 121.87930298 73.3651886 C121.91191088 78.98673168 121.92984078 84.60814793 121.93761635 90.22977829 C121.94315725 92.37397635 121.95397725 94.51816751 121.97017479 96.66231155 C121.99196777 99.66677575 121.99495072 102.67071661 121.99356079 105.67524719 C122.00434662 106.56069717 122.01513245 107.44614716 122.02624512 108.35842896 C122.00095522 113.41409325 121.45068691 116.87278999 118.65298462 121.26069641 C116.00853827 123.4329202 114.62311444 123.25962962 111.15298462 123.13569641 C107.13485305 122.13116352 106.03177921 121.60933379 103.65298462 118.26069641 C103.07193519 115.0501578 103.14804977 111.88130582 103.19888306 108.62690735 C103.19829895 107.65096619 103.19771484 106.67502502 103.19711304 105.66950989 C103.19989931 102.44433501 103.23101776 99.2200848 103.26235962 95.99507141 C103.26982005 93.75876877 103.27551392 91.52245959 103.2795105 89.28614807 C103.29478224 83.40052742 103.3340778 77.51530167 103.37832642 71.62983704 C103.41924562 65.62403201 103.43751438 59.61816316 103.45767212 53.61225891 C103.50057018 41.82823125 103.56884051 30.04449667 103.65298462 18.26069641 C89.2225798 18.32137405 74.79235298 18.39916802 60.36214638 18.49641132 C53.66109012 18.54126953 46.96009731 18.58033961 40.25894165 18.60713196 C33.7878829 18.63320522 27.31705643 18.67363675 20.84614182 18.72388268 C18.38153352 18.74052407 15.91688508 18.75205527 13.45222855 18.75831032 C9.99106947 18.76798078 6.53050102 18.79607662 3.06948853 18.82832336 C2.05815857 18.82688828 1.04682861 18.82545319 0.00485229 18.82397461 C-8.43175299 18.93460725 -16.91253185 20.29355045 -23.74545288 25.60444641 C-30.02958019 32.10315368 -32.43778755 38.99730507 -32.52279663 47.81929016 C-32.54664429 49.09223938 -32.57049194 50.3651886 -32.59506226 51.67671204 C-32.63016658 53.68895066 -32.65953127 55.7005813 -32.67294312 57.71308899 C-32.6884735 59.66537802 -32.73034279 61.61740099 -32.77279663 63.56929016 C-32.78737915 64.7325885 -32.80196167 65.89588684 -32.81698608 67.09443665 C-33.44961897 70.87362406 -34.69873142 72.54246829 -37.34701538 75.26069641 C-40.24997344 76.71217544 -42.11963317 76.63308667 -45.34701538 76.26069641 C-48.48184601 74.72037222 -49.57502872 74.15179656 -51.34701538 71.26069641 C-52.10835856 66.80343996 -52.12446095 62.42897041 -52.01937866 57.92573547 C-51.97273566 55.79362132 -51.97818767 53.6666194 -51.99154663 51.53413391 C-51.93266798 37.2165134 -48.58780664 25.2255668 -38.84701538 14.51069641 C-38.02201538 13.76819641 -37.19701538 13.02569641 -36.34701538 12.26069641 C-35.46014038 11.43569641 -34.57326538 10.61069641 -33.65951538 9.76069641 C-23.74995525 1.7266029 -12.40185775 -0.05160904 0 0 Z " fill="#000000" transform="translate(200.34701538085938,226.7393035888672)"/>
<path d="M0 0 C1.94712891 -0.0299707 1.94712891 -0.0299707 3.93359375 -0.06054688 C16.24604586 -0.05433474 26.20344269 2.63791711 35.125 11.4375 C43.59375827 21.43744001 45.74350094 32.44826169 45.69140625 45.2421875 C45.69760483 46.52433136 45.70380341 47.80647522 45.71018982 49.12747192 C45.72050945 51.81856522 45.71614873 54.50912677 45.70141602 57.20019531 C45.68411746 60.64035677 45.70789908 64.07886502 45.74290562 67.5188427 C45.77016034 70.82247776 45.76014912 74.12597177 45.75390625 77.4296875 C45.76716446 78.65992645 45.78042267 79.89016541 45.79408264 81.15768433 C45.69060437 90.61407655 45.69060437 90.61407655 42.71679688 93.71337891 C38.70736689 96.38054117 36.86718796 96.0396826 32.125 95.4375 C28.88886646 93.69496655 28.30104685 92.96564056 27.125 89.4375 C27.03389391 87.69580464 26.99988274 85.95086346 26.99902344 84.20678711 C26.99521667 83.13814926 26.99140991 82.06951141 26.98748779 80.9684906 C26.98646057 79.81228714 26.98543335 78.65608368 26.984375 77.46484375 C26.96603928 75.01366264 26.94646828 72.56249052 26.92578125 70.11132812 C26.89687772 66.249277 26.87500162 62.38780087 26.87451172 58.52563477 C26.87116186 54.79651958 26.83650918 51.06872781 26.796875 47.33984375 C26.8039447 46.19780991 26.8110144 45.05577606 26.81829834 43.87913513 C26.70614151 36.42700164 25.42241184 30.63735525 21.125 24.4375 C15.10763021 18.75090412 8.20273537 19.19429121 0.4375 19.125 C-1.15868164 19.08149414 -1.15868164 19.08149414 -2.78710938 19.03710938 C-9.37552891 18.98420669 -14.43119326 19.52755008 -19.875 23.4375 C-21.73012814 25.13059814 -21.73012814 25.13059814 -22.8125 27 C-23.19277344 27.57878906 -23.57304687 28.15757812 -23.96484375 28.75390625 C-26.19959339 32.88771352 -26.04267911 36.89169674 -26.06787109 41.45385742 C-26.07604858 42.27049866 -26.08422607 43.08713989 -26.09265137 43.92852783 C-26.11747876 46.63333407 -26.1340163 49.33808783 -26.1484375 52.04296875 C-26.15376118 52.96800013 -26.15908485 53.8930315 -26.16456985 54.84609413 C-26.19129236 59.74414872 -26.21066847 64.64217793 -26.22509766 69.5402832 C-26.23842708 73.58803962 -26.26626252 77.63529076 -26.30712891 81.68286133 C-26.35652281 86.57525624 -26.38122722 91.46719344 -26.38832474 96.35982704 C-26.39502546 98.22050281 -26.41021676 100.08116883 -26.43421555 101.94170189 C-26.46597214 104.55306078 -26.46588834 107.16266722 -26.45849609 109.77416992 C-26.47490143 110.53550735 -26.49130676 111.29684479 -26.50820923 112.08125305 C-26.44043805 117.96233096 -24.47541742 121.83189481 -20.875 126.4375 C-14.69896305 132.45517703 -8.13774679 132.72959314 0.0381012 132.68232727 C1.03200314 132.68459184 2.02590508 132.68685642 3.04992527 132.68918961 C6.37783113 132.69448355 9.70555067 132.68565604 13.03344727 132.67700195 C15.42027852 132.67811487 17.8071095 132.68017274 20.19393921 132.68310547 C25.33236273 132.68782761 30.47074056 132.68670769 35.60916328 132.68132973 C43.73084208 132.67310709 51.85243976 132.68435338 59.97410583 132.6985321 C62.75431519 132.70313276 65.53452476 132.70758317 68.31473446 132.71197033 C69.35680423 132.71361754 69.35680423 132.71361754 70.41992592 132.71529803 C78.32120721 132.72746322 86.22249109 132.73502197 94.1237793 132.7409668 C95.20680154 132.74178889 95.20680154 132.74178889 96.31170302 132.74262758 C108.02206402 132.75109383 119.73240207 132.74774471 131.44276322 132.74181245 C143.4697497 132.73619729 155.49662035 132.74971553 167.52357143 132.77936524 C174.27484117 132.79533819 181.02585772 132.80172509 187.77713203 132.78478432 C194.12280499 132.76949144 200.46803352 132.77698413 206.81367111 132.80214691 C209.14494388 132.80720742 211.47625315 132.80367542 213.80749702 132.79101372 C216.98517043 132.77497861 220.16128037 132.78948451 223.33888245 132.8117218 C224.26572596 132.7996843 225.19256947 132.78764681 226.14749914 132.77524453 C230.67223522 132.84000844 232.52762666 132.96929458 236.19732571 135.84550762 C239.15842841 139.8270701 238.81929179 141.57745745 238.125 146.4375 C236.25484906 148.86869623 234.84361655 150.07819173 232.125 151.4375 C230.78139397 151.53334855 229.43318477 151.56845205 228.08616829 151.57172108 C227.23615466 151.57617892 226.38614104 151.58063676 225.51036942 151.58522969 C224.57109821 151.58504533 223.63182699 151.58486097 222.66409302 151.58467102 C221.67038063 151.58834771 220.67666824 151.5920244 219.65284336 151.5958125 C216.30127195 151.6068828 212.94973151 151.61069891 209.59814453 151.61450195 C207.20355632 151.62076429 204.80896909 151.62741088 202.41438293 151.63441467 C195.21005375 151.65367131 188.0057271 151.66424974 180.80137998 151.67314246 C177.40689109 151.67752565 174.01240376 151.68289261 170.61791611 151.68813133 C159.32874183 151.70514957 148.03956852 151.7196408 136.75038338 151.72688007 C133.81959151 151.72878993 130.88879965 151.73071026 127.95800781 151.73266602 C127.22958592 151.73314976 126.50116403 151.7336335 125.75066875 151.7341319 C113.96714292 151.74242103 102.18371898 151.76773633 90.40023758 151.80024669 C78.29542144 151.83337032 66.19065696 151.85133386 54.08579528 151.85452431 C47.29234308 151.85668517 40.49903919 151.86537068 33.70563126 151.89098549 C27.30836229 151.9143017 20.91135955 151.9184849 14.51405907 151.90822411 C12.17120541 151.90772944 9.82833849 151.91402944 7.48552513 151.92778015 C-21.51241031 152.08839401 -21.51241031 152.08839401 -32.875 141.4375 C-40.57389946 133.81764468 -44.94025476 126.22259599 -45.04385376 115.28703308 C-45.04788712 114.05815117 -45.04788712 114.05815117 -45.05200195 112.80444336 C-45.05857315 111.93395355 -45.06514435 111.06346375 -45.07191467 110.16659546 C-45.09161654 107.28684394 -45.10330572 104.40714461 -45.11328125 101.52734375 C-45.11735678 100.54077852 -45.1214323 99.55421329 -45.12563133 98.53775215 C-45.14648261 93.31203548 -45.16078628 88.08634496 -45.17016602 82.8605957 C-45.18120553 77.48303484 -45.21557986 72.10589059 -45.25533772 66.72847652 C-45.28158432 62.57696301 -45.28986517 58.42554737 -45.29344749 54.27395821 C-45.29829564 52.29297649 -45.30985862 50.31199863 -45.32848549 48.33109856 C-45.44825382 34.74562485 -45.05905887 23.40214712 -35.921875 12.5078125 C-25.30393353 1.76829155 -14.63568847 -0.07946326 0 0 Z " fill="#000000" transform="translate(157.875,328.5625)"/>
<path d="M0 0 C13.47583609 11.88156924 13.47583609 11.88156924 14.4375 19.4375 C14 23 14 23 11.9375 25.9375 C9 28 9 28 5.6875 28.75 C-0.15947779 27.56078418 -3.67789748 23.69702532 -7.5 19.2578125 C-14.55949187 11.27911596 -27.31087918 4.76594019 -38 4 C-54.90450712 3.03869219 -69.24868143 5.85835674 -83.08984375 16.33984375 C-91.72697717 24.23499523 -99.56980073 36.72734336 -100.12600785 48.7160148 C-100.12649761 49.76588919 -100.12698736 50.81576359 -100.12749195 51.89745235 C-100.1304996 53.11107132 -100.13350725 54.32469028 -100.13660604 55.57508558 C-100.13491849 56.92366861 -100.13314743 58.27225153 -100.13130188 59.62083435 C-100.13300394 61.05202942 -100.13515358 62.48322401 -100.13771313 63.9144178 C-100.14231214 67.02921696 -100.14373061 70.14399624 -100.14274788 73.2587986 C-100.14115598 78.32645068 -100.14635527 83.394083 -100.15237427 88.46173096 C-100.1604893 95.81884696 -100.16543175 103.1759595 -100.16866493 110.53307915 C-100.17415899 122.15789629 -100.19105332 133.78268405 -100.21000671 145.40748596 C-100.21636347 149.38333411 -100.22267188 153.35918234 -100.22898388 157.33503056 C-100.23135952 158.82544475 -100.23135952 158.82544475 -100.23378316 160.34596832 C-100.25172191 171.65780815 -100.26794791 182.96965005 -100.28295898 194.28149414 C-100.28433486 195.31566391 -100.28571073 196.34983368 -100.28712829 197.41534192 C-100.3090689 214.18264473 -100.31981716 230.94994 -100.32732973 247.71725463 C-100.33539478 264.92413819 -100.3586643 282.13095689 -100.3952834 299.33780342 C-100.41733282 309.95588933 -100.42696561 320.57384196 -100.42078307 331.19194961 C-100.4176136 338.46517066 -100.42890462 345.73827769 -100.45167748 353.01146346 C-100.46437121 357.21056952 -100.47048396 361.40942166 -100.45926094 365.60853767 C-100.44912306 369.45091861 -100.45727755 373.29280566 -100.4801239 377.13512803 C-100.48513494 378.52673606 -100.48335848 379.91838811 -100.47419123 381.30997496 C-100.46272413 383.19886339 -100.47816382 385.08785817 -100.49498463 386.9767065 C-100.49596144 388.02674325 -100.49693824 389.07677999 -100.49794465 390.15863603 C-101.128602 393.72781834 -102.51803664 395.40824171 -105 398 C-107.85324437 399.42662219 -109.83454549 399.31033868 -113 399 C-115.69990662 397.20006226 -117.5418865 395.916227 -119 393 C-119.10117913 391.16933507 -119.13753126 389.3349619 -119.14425182 387.50151539 C-119.15095967 386.32591267 -119.15766751 385.15030996 -119.16457862 383.93908292 C-119.16692096 382.63610893 -119.16926331 381.33313493 -119.17167664 379.99067688 C-119.17767085 378.60133197 -119.18409574 377.21198885 -119.19091636 375.82264775 C-119.20843407 371.99099968 -119.21968565 368.15935445 -119.22992671 364.32768095 C-119.24201574 360.19990569 -119.25978631 356.07215435 -119.27679443 351.94439697 C-119.30916444 343.84897695 -119.33597001 335.75354759 -119.36059722 327.65810064 C-119.38064555 321.07360293 -119.40224209 314.48911214 -119.42493629 307.90462303 C-119.48909946 289.23301456 -119.54901437 270.56139924 -119.60361841 251.88976035 C-119.60656545 250.88224051 -119.60951248 249.87472067 -119.61254883 248.83666992 C-119.61549856 247.82791717 -119.6184483 246.81916443 -119.62148742 245.77984341 C-119.66947222 229.45885676 -119.72755278 213.13792378 -119.79024651 196.81698761 C-119.85451445 180.05539913 -119.91111403 163.29379968 -119.95981437 146.53215855 C-119.9873089 137.12349368 -120.01793912 127.71486349 -120.05682945 118.30623817 C-120.08991349 110.28814903 -120.11584367 102.2700754 -120.13268574 94.25193504 C-120.14147196 90.16505913 -120.15346738 86.07826311 -120.17449379 81.99143028 C-120.19371057 78.23990141 -120.20325003 74.48846934 -120.20551727 70.73689308 C-120.20909763 68.7577652 -120.22261676 66.77866271 -120.2366516 64.79958135 C-120.21668342 43.14673707 -115.59731672 22.38626178 -100.2734375 6.15234375 C-73.06158598 -19.61007925 -30.22098983 -23.22112117 0 0 Z " fill="#000000" transform="translate(181,47)"/>
<path d="M0 0 C13.91128841 11.13955629 23.20253727 24.38536315 25.71875 42.41015625 C26.09825278 47.25408759 26.25061626 52.07983437 26.3125 56.9375 C26.33920776 58.30648437 26.33920776 58.30648437 26.36645508 59.703125 C26.36056469 64.59667655 26.27421034 68.08168271 23 72 C19.85447629 74.09701581 19.1208584 74.25229827 15.53482056 74.26742554 C14.16375908 74.28022049 14.16375908 74.28022049 12.76499939 74.29327393 C11.76440994 74.29236755 10.7638205 74.29146118 9.73291016 74.29052734 C8.67736435 74.29724457 7.62181854 74.30396179 6.5342865 74.31088257 C3.03583096 74.32992101 -0.46243334 74.33378974 -3.9609375 74.3359375 C-6.38847941 74.34236139 -8.81602053 74.34908944 -11.24356079 74.35610962 C-16.33622025 74.36809705 -21.4288118 74.37178893 -26.52148438 74.37060547 C-33.05092689 74.37040221 -39.5799345 74.39770573 -46.10927391 74.43214989 C-51.12439987 74.4543747 -56.13942044 74.45844436 -61.15459061 74.45738602 C-63.56197229 74.45974859 -65.96935659 74.46860879 -68.37668991 74.48405075 C-71.74281108 74.50362052 -75.10798505 74.49790743 -78.47412109 74.48583984 C-79.96893257 74.50269836 -79.96893257 74.50269836 -81.49394226 74.51989746 C-85.85747882 74.48009494 -88.3137207 74.42244179 -92.09536743 72.09463501 C-98.00071156 65.60018524 -95.35999641 52.26198657 -95 44 C-93.77775588 29.04435146 -86.62463938 16.31834347 -76 6 C-75.45988281 5.43925781 -74.91976562 4.87851563 -74.36328125 4.30078125 C-54.9977477 -14.28427739 -21.44703665 -15.0347151 0 0 Z M-67.1796875 22.66796875 C-75.24100917 32.99545596 -77 43.1374587 -77 56 C-48.95 56 -20.9 56 8 56 C6.83263295 38.48949424 4.56612731 29.07054692 -7.6875 17.25 C-25.85285639 1.96408366 -51.57610993 6.14839168 -67.1796875 22.66796875 Z " fill="#000000" transform="translate(233,104)"/>
<path d="M0 0 C1.26188896 -0.01073296 1.26188896 -0.01073296 2.54927063 -0.02168274 C5.32311728 -0.03855684 8.09534476 -0.01917534 10.86914062 0.00219727 C12.80057916 0.00136845 14.73201762 -0.00109143 16.66345215 -0.00511169 C20.70863105 -0.00796881 24.75325599 0.00672314 28.79833984 0.03417969 C33.98041435 0.06826224 39.16149838 0.0622434 44.3436203 0.04351711 C48.33111814 0.03294252 52.31838597 0.04188914 56.30586243 0.05690193 C58.21640846 0.06208082 60.12697853 0.0616055 62.03752136 0.05535698 C64.70913234 0.04989922 67.37933123 0.07029719 70.05078125 0.09765625 C71.23230522 0.08786743 71.23230522 0.08786743 72.43769836 0.07788086 C76.13733004 0.14222029 78.32667731 0.50696287 81.49255371 2.48475647 C84.12350062 5.26261095 84.52539062 6.81887167 84.52539062 10.63110352 C82.99665192 14.60582415 82.09758565 16.24964016 78.52539062 18.63110352 C75.7733477 18.83083782 73.12226994 18.91444313 70.36962891 18.90576172 C69.53841522 18.91087265 68.70720154 18.91598358 67.85079956 18.92124939 C65.09902779 18.9351658 62.34750594 18.93418691 59.59570312 18.93188477 C57.68382677 18.93577095 55.77195127 18.94010546 53.8600769 18.94487 C49.85021162 18.95233689 45.84043438 18.95203781 41.83056641 18.94677734 C36.69344869 18.94098612 31.55669191 18.95790305 26.41963387 18.98112202 C22.46993911 18.99585977 18.52033124 18.99673093 14.57061386 18.99361229 C12.67680014 18.99412561 10.78298157 18.99936544 8.88919449 19.00942421 C6.23920566 19.02177026 3.58991912 19.01500772 0.93994141 19.00341797 C0.15846741 19.01106171 -0.62300659 19.01870544 -1.42816162 19.02658081 C-5.94563701 18.98294415 -8.89101122 18.44951875 -12.47460938 15.63110352 C-14.05358991 12.47314245 -14.29389108 9.02439716 -13.47460938 5.63110352 C-9.5288322 0.51718128 -6.15590469 -0.09137699 0 0 Z " fill="#000000" transform="translate(13.474609375,461.368896484375)"/>
</svg>
