<?xml version="1.0" encoding="UTF-8"?>
<svg version="1.1" xmlns="http://www.w3.org/2000/svg" width="512" height="512">
<path d="M0 0 C0.99386719 0.33902344 1.98773438 0.67804687 3.01171875 1.02734375 C15.3185823 5.64447146 26.26302525 13.17764148 36.1875 21.6875 C36.79891846 22.20957031 37.41033691 22.73164063 38.0402832 23.26953125 C44.06174775 28.6107607 48.03352783 33.70238617 50 41.625 C51.47615275 46.86684854 52.66624938 49.72040494 57 53 C57.33 53.33 57.66 53.66 58 54 C62.9916217 54.64706207 66.77915771 54.88316251 70.9375 51.875 C74.11360558 47.44770132 75.89366665 43.44420655 77.1875 38.1875 C81.28360692 24.32693618 97.87925055 14.31744599 109.96166992 7.64526367 C111.63313964 6.74848607 113.31636924 5.87373255 115 5 C115.92296875 4.51789062 116.8459375 4.03578125 117.796875 3.5390625 C135.96379509 -5.32940441 157.39456671 -7.39820502 176.76953125 -1.18359375 C177.83558594 -0.79300781 178.90164063 -0.40242187 180 0 C180.99386719 0.33902344 181.98773438 0.67804687 183.01171875 1.02734375 C195.3185823 5.64447146 206.26302525 13.17764148 216.1875 21.6875 C216.79891846 22.20957031 217.41033691 22.73164063 218.0402832 23.26953125 C224.06174775 28.6107607 228.03352783 33.70238617 230 41.625 C231.47615275 46.86684854 232.66624938 49.72040494 237 53 C237.33 53.33 237.66 53.66 238 54 C242.9916217 54.64706207 246.77915771 54.88316251 250.9375 51.875 C254.11360558 47.44770132 255.89366665 43.44420655 257.1875 38.1875 C261.28360692 24.32693618 277.87925055 14.31744599 289.96166992 7.64526367 C291.63313964 6.74848607 293.31636924 5.87373255 295 5 C295.92296875 4.51789062 296.8459375 4.03578125 297.796875 3.5390625 C315.78389665 -5.24158417 337.27968084 -7.47291473 356.5 -1.31640625 C357.655 -0.88199219 358.81 -0.44757812 360 0 C360.63808594 0.23605957 361.27617187 0.47211914 361.93359375 0.71533203 C376.02633306 6.04131611 387.84214292 14.06439546 399.25 23.8125 C399.88236572 24.35148926 400.51473145 24.89047852 401.16625977 25.44580078 C401.75592529 25.96513184 402.34559082 26.48446289 402.953125 27.01953125 C403.47036133 27.47432861 403.98759766 27.92912598 404.52050781 28.39770508 C408.62097784 32.83852765 409.37561111 36.3700024 409.38031673 42.36080074 C409.38497665 43.09583819 409.38963657 43.83087564 409.3944377 44.58818695 C409.40641762 47.05872275 409.39698093 49.52871163 409.38768005 51.99925232 C409.39185166 53.78533341 409.39732823 55.57141185 409.40399987 57.35748535 C409.41849587 62.27153897 409.4141968 67.18542545 409.40683305 72.09948838 C409.40211395 77.39678609 409.41460005 82.69404699 409.42485046 87.99133301 C409.44206841 98.37138513 409.44287228 108.7513768 409.43763756 119.1314395 C409.43360027 127.56615393 409.43503416 136.00085047 409.44038582 144.43556404 C409.44113424 145.63488567 409.44188266 146.8342073 409.44265376 148.06987201 C409.4441852 150.50609096 409.44572355 152.9423099 409.44726873 155.37852884 C409.46100456 178.23765676 409.45554843 201.09675047 409.44408352 223.95587761 C409.43414951 244.88045323 409.44709281 265.80494045 409.47101771 286.72950243 C409.49538484 308.20219455 409.50502249 329.67484545 409.49836498 351.14755112 C409.49486752 363.20793069 409.4971396 375.26824224 409.51461601 387.32861137 C409.52930814 397.59513944 409.53001261 407.8615516 409.5125451 418.12807732 C409.50400815 423.36829252 409.50195113 428.6083004 409.51719666 433.84850502 C409.53097361 438.64320157 409.52637114 443.43751181 409.50695742 448.23218561 C409.50317553 449.96900778 409.50618192 451.70586039 409.51656907 453.44265562 C409.52966786 455.80002515 409.51822063 458.1560473 409.50057125 460.51335812 C409.50046391 461.82372065 409.50035658 463.13408319 409.50024599 464.48415369 C408.77834559 469.55783927 406.64570472 472.73137983 402.61328125 475.83984375 C397.81879878 477.96833597 393.12219482 477.80453322 388 477 C384.84015527 475.49964207 382.54463194 473.37434108 380 471 C364.83507779 457.98127985 348.85234292 448.49392486 328.35546875 449.52734375 C315.92763527 450.61358812 305.89521888 456.9425621 296 464 C295.19304687 464.53109375 294.38609375 465.0621875 293.5546875 465.609375 C288.25467452 469.51889028 286.39674845 474.36463845 284.21020508 480.3737793 C280.52676416 490.35115894 272.92951213 499.15150691 263.56640625 504.3515625 C252.62848742 509.34456978 238.20208291 510.26773904 226.75 506.375 C213.62120905 500.49674259 205.65236978 489.91196291 200 477 C199.53851156 475.730309 199.07955736 474.45968883 198.625 473.1875 C192.87818294 461.91489731 177.26930518 454.60211426 165.80078125 450.8515625 C150.89293915 447.51147044 137.47015213 450.31669751 124.45214844 458.21362305 C121.56424405 460.04924052 118.7861409 462.01287706 116 464 C115.19304687 464.53109375 114.38609375 465.0621875 113.5546875 465.609375 C108.25467452 469.51889028 106.39674845 474.36463845 104.21020508 480.3737793 C100.52676416 490.35115894 92.92951213 499.15150691 83.56640625 504.3515625 C72.62848742 509.34456978 58.20208291 510.26773904 46.75 506.375 C33.62120905 500.49674259 25.65236978 489.91196291 20 477 C19.53851156 475.730309 19.07955736 474.45968883 18.625 473.1875 C12.87557245 461.90977672 -2.72552049 454.61848824 -14.19140625 450.84765625 C-30.52029228 447.21343238 -45.02640408 451.17354096 -59 460 C-65.81084134 464.71856489 -72.1712473 469.85038212 -78.2578125 475.46875 C-82.10693769 478.85183761 -86.08442365 478.32845762 -91.01171875 478.28125 C-95.00438764 477.9054694 -97.10308459 476.74835565 -100 474 C-103.09747943 469.84550994 -103.37764281 466.75822854 -103.38590336 461.62916851 C-103.39116247 460.89304188 -103.39642158 460.15691525 -103.40184006 459.39848176 C-103.41583014 456.92423322 -103.40842166 454.45051281 -103.40113831 451.97624207 C-103.40674177 450.18746057 -103.41364353 448.39868276 -103.42173427 446.60991079 C-103.44011851 441.68832739 -103.43968399 436.76689664 -103.43615115 431.84528673 C-103.43553989 426.5397628 -103.45208811 421.23428825 -103.46632385 415.92878723 C-103.4912617 405.53203041 -103.4994892 395.1353246 -103.50116099 384.73854037 C-103.5025856 376.28906318 -103.50874549 367.83960285 -103.51826286 359.390131 C-103.54468757 335.44370116 -103.5585202 311.49731169 -103.55627144 287.55086716 C-103.55615157 286.25943989 -103.5560317 284.96801261 -103.5559082 283.63745117 C-103.55578556 282.34445035 -103.55566292 281.05144953 -103.55553656 279.71926687 C-103.55431699 258.76044103 -103.5830288 237.80177683 -103.6253233 216.84299775 C-103.66839053 195.33187322 -103.68913519 173.82082758 -103.68654197 152.30965883 C-103.68554523 140.22905136 -103.6938228 128.14861335 -103.72607613 116.06804466 C-103.75335963 105.78287306 -103.75994315 95.49794772 -103.73954786 85.21275564 C-103.72973594 79.96409174 -103.72963941 74.7159006 -103.7556076 69.46728134 C-103.77913579 64.66245733 -103.77497937 59.85848269 -103.74875521 55.05367998 C-103.7441352 53.31547144 -103.74965559 51.57720022 -103.76633544 49.83906557 C-103.90716491 34.12304347 -103.90716491 34.12304347 -98.55955642 28.4116295 C-98.0449028 27.94579176 -97.53024918 27.47995403 -97 27 C-96.07703125 26.07574219 -95.1540625 25.15148437 -94.203125 24.19921875 C-81.24648475 13.17921917 -67.16240428 4.443009 -51 -1 C-50.09121094 -1.33773438 -49.18242188 -1.67546875 -48.24609375 -2.0234375 C-33.17788197 -6.8049079 -14.67207554 -5.37562139 0 0 Z M-73 48 C-73.30030651 51.07928006 -73.30030651 51.07928006 -73.24050903 54.77029419 C-73.24221788 55.47437405 -73.24392673 56.1784539 -73.24568737 56.90386951 C-73.24899452 59.27471937 -73.23795865 61.64528928 -73.22705078 64.01611328 C-73.22648693 65.71096795 -73.22680271 67.40582311 -73.22793579 69.10067749 C-73.22851133 73.71202472 -73.2167246 78.32326862 -73.20278788 82.93459177 C-73.19031391 87.74991747 -73.18911266 92.56524535 -73.18673706 97.38058472 C-73.18051246 106.50369422 -73.16408843 115.62675598 -73.14403808 124.74984443 C-73.12170952 135.13420892 -73.11069332 145.51857565 -73.10064721 155.90295815 C-73.07972302 177.26866545 -73.04452806 198.63432972 -73 220 C-70.29508356 218.92957775 -67.62799504 217.8317807 -64.9765625 216.6328125 C-42.40090664 206.47639856 -20.06805153 204.40164367 3.36328125 213.2734375 C8.36812114 215.29003966 13.17922706 217.5794326 18 220 C18.21033799 197.71235979 18.36899641 175.42488346 18.46630955 153.13645172 C18.51269704 142.78724468 18.57592695 132.4386547 18.67895508 122.08984375 C18.76872282 113.06868369 18.82673858 104.04797053 18.84679645 95.02637625 C18.85851989 90.25020105 18.88602451 85.47530419 18.95157051 80.69953918 C19.01280703 76.20118822 19.03147614 71.70463793 19.01796913 67.20590973 C19.02043878 65.55791169 19.03825926 63.90985151 19.07284927 62.26221466 C19.44539611 53.29743587 19.44539611 53.29743587 16.04125786 45.27755737 C13.78849187 43.23972919 11.57785989 41.59719959 9 40 C7.93394531 39.22269531 6.86789063 38.44539063 5.76953125 37.64453125 C-21.74751962 20.59631875 -50.07056702 25.07056702 -73 48 Z M117.73073578 39.73235226 C116 41 116 41 113.95462799 42.19007969 C110.1189821 44.78964029 108.2623348 46.77530037 107.27516174 51.38387871 C107.0122605 55.8036829 107.00943308 60.15977722 107.09179688 64.58374023 C107.09405514 66.27933139 107.09278354 67.97493036 107.08825684 69.67051697 C107.08596554 74.26155467 107.13292904 78.85091333 107.1888485 83.44156146 C107.23892923 88.24342967 107.24356382 93.04533829 107.25305176 97.84742737 C107.27789637 106.9353019 107.34351748 116.02240465 107.42384768 125.10993963 C107.51333108 135.45804249 107.5572689 145.80618261 107.59741116 156.15457618 C107.68098555 177.43681455 107.82165906 198.71835862 108 220 C108.50796112 219.77074829 109.01592224 219.54149658 109.53927612 219.30529785 C111.87639556 218.25258622 114.21551689 217.20439547 116.5546875 216.15625 C117.35350342 215.79563477 118.15231934 215.43501953 118.9753418 215.06347656 C140.0096706 205.6576205 161.77364167 205.09896305 183.36328125 213.2734375 C188.36812114 215.29003966 193.17922706 217.5794326 198 220 C198.21033799 197.71235979 198.36899641 175.42488346 198.46630955 153.13645172 C198.51269704 142.78724468 198.57592695 132.4386547 198.67895508 122.08984375 C198.76872282 113.06868369 198.82673858 104.04797053 198.84679645 95.02637625 C198.85851989 90.25020105 198.88602451 85.47530419 198.95157051 80.69953918 C199.01280703 76.20118822 199.03147614 71.70463793 199.01796913 67.20590973 C199.02043878 65.55791169 199.03825926 63.90985151 199.07284927 62.26221466 C199.44539611 53.29743587 199.44539611 53.29743587 196.04125786 45.27755737 C193.78849187 43.23972919 191.57785989 41.59719959 189 40 C187.93394531 39.22269531 186.86789062 38.44539063 185.76953125 37.64453125 C162.37605175 23.15108094 140.07239944 23.06853093 117.73073578 39.73235226 Z M297.73073578 39.73235226 C296 41 296 41 293.95462799 42.19007969 C290.1189821 44.78964029 288.2623348 46.77530037 287.27516174 51.38387871 C287.0122605 55.8036829 287.00943308 60.15977722 287.09179688 64.58374023 C287.09405514 66.27933139 287.09278354 67.97493036 287.08825684 69.67051697 C287.08596554 74.26155467 287.13292904 78.85091333 287.1888485 83.44156146 C287.23892923 88.24342967 287.24356382 93.04533829 287.25305176 97.84742737 C287.27789637 106.9353019 287.34351748 116.02240465 287.42384768 125.10993963 C287.51333108 135.45804249 287.5572689 145.80618261 287.59741116 156.15457618 C287.68098555 177.43681455 287.82165906 198.71835862 288 220 C288.50796112 219.77074829 289.01592224 219.54149658 289.53927612 219.30529785 C291.87639556 218.25258622 294.21551689 217.20439547 296.5546875 216.15625 C297.35350342 215.79563477 298.15231934 215.43501953 298.9753418 215.06347656 C318.23109363 206.45294129 339.96545127 204.36568958 360 212 C364.29182003 213.73603923 368.5305338 215.57267564 372.734375 217.51171875 C375.91215417 219.02942372 375.91215417 219.02942372 379 220 C379.18691635 197.69504492 379.32797224 175.39021904 379.41449738 153.08463955 C379.45574126 142.72762808 379.51196653 132.37110334 379.60351562 122.0144043 C379.68327596 112.98702881 379.73487104 103.96000581 379.75270796 94.93228775 C379.76313415 90.15235096 379.78761918 85.37342256 379.84584045 80.59380913 C379.90021922 76.09309862 379.91687777 71.59380987 379.90486145 67.09280205 C379.907059 65.44279243 379.92292979 63.79273438 379.9536438 62.14300919 C380.36231248 53.39739957 380.36231248 53.39739957 377.27055359 45.50438118 C375.26031577 43.70901896 373.33070648 42.34126208 371 41 C369.94296875 40.25492188 368.8859375 39.50984375 367.796875 38.7421875 C343.76349155 24.01403713 321.05103005 22.33860651 297.73073578 39.73235226 Z M48 84 C47.92986129 105.48825171 47.87698798 126.9764845 47.84456348 148.46482754 C47.82910682 158.44265512 47.80804025 168.42041149 47.77368164 178.39819336 C47.74374253 187.09670706 47.72441627 195.79516919 47.71773452 204.49373299 C47.71382991 209.09785573 47.70467855 213.70183093 47.68280983 218.3059063 C47.66237337 222.6437893 47.65618062 226.98146467 47.66067696 231.31939125 C47.65985495 232.90721644 47.65393204 234.49504893 47.64238358 236.08283234 C47.56428416 247.37938663 47.80796815 256.59791606 56 265 C59.71226816 266.85613408 63.94803223 266.44168369 68 266 C73.33475497 263.21664958 75.76571602 257.87172431 77.54228878 252.29893875 C78.15118717 249.24063465 78.12261043 246.33621064 78.12025452 243.21697998 C78.12110894 242.53569259 78.12196337 241.8544052 78.12284368 241.15247273 C78.1244901 238.87082742 78.11899084 236.58925572 78.11352539 234.30761719 C78.11324331 232.67158001 78.11340166 231.03554271 78.1139679 229.39950562 C78.11425506 224.95772431 78.10837131 220.51596995 78.10139394 216.07419491 C78.09514703 211.43237888 78.09455554 206.79056226 78.09336853 202.14874268 C78.09025917 193.35862684 78.08205108 184.56852342 78.07201904 175.77841306 C78.06084566 165.77125725 78.05534436 155.76410085 78.05032361 145.75694036 C78.03986816 125.17128664 78.02227633 104.5856441 78 84 C77.22293701 84.16233124 76.44587402 84.32466248 75.64526367 84.49191284 C73.12654319 84.97569431 70.87157512 85.12911136 68.3125 85.1328125 C67.44882813 85.13410156 66.58515625 85.13539062 65.6953125 85.13671875 C64.80585938 85.13285156 63.91640625 85.12898438 63 85.125 C62.11054688 85.12886719 61.22109375 85.13273437 60.3046875 85.13671875 C59.44101563 85.13542969 58.57734375 85.13414063 57.6875 85.1328125 C56.90761719 85.13168457 56.12773437 85.13055664 55.32421875 85.12939453 C52.80720493 84.98926666 50.46473061 84.51489104 48 84 Z M228 84 C227.92986129 105.48825171 227.87698798 126.9764845 227.84456348 148.46482754 C227.82910682 158.44265512 227.80804025 168.42041149 227.77368164 178.39819336 C227.74374253 187.09670706 227.72441627 195.79516919 227.71773452 204.49373299 C227.71382991 209.09785573 227.70467855 213.70183093 227.68280983 218.3059063 C227.66237337 222.6437893 227.65618062 226.98146467 227.66067696 231.31939125 C227.65985495 232.90721644 227.65393204 234.49504893 227.64238358 236.08283234 C227.56428416 247.37938663 227.80796815 256.59791606 236 265 C239.71226816 266.85613408 243.94803223 266.44168369 248 266 C253.33475497 263.21664958 255.76571602 257.87172431 257.54228878 252.29893875 C258.15118717 249.24063465 258.12261043 246.33621064 258.12025452 243.21697998 C258.12110894 242.53569259 258.12196337 241.8544052 258.12284368 241.15247273 C258.1244901 238.87082742 258.11899084 236.58925572 258.11352539 234.30761719 C258.11324331 232.67158001 258.11340166 231.03554271 258.1139679 229.39950562 C258.11425506 224.95772431 258.10837131 220.51596995 258.10139394 216.07419491 C258.09514703 211.43237888 258.09455554 206.79056226 258.09336853 202.14874268 C258.09025917 193.35862684 258.08205108 184.56852342 258.07201904 175.77841306 C258.06084566 165.77125725 258.05534436 155.76410085 258.05032361 145.75694036 C258.03986816 125.17128664 258.02227633 104.5856441 258 84 C257.22293701 84.16233124 256.44587402 84.32466248 255.64526367 84.49191284 C253.12654319 84.97569431 250.87157512 85.12911136 248.3125 85.1328125 C247.44882812 85.13410156 246.58515625 85.13539062 245.6953125 85.13671875 C244.80585938 85.13285156 243.91640625 85.12898438 243 85.125 C242.11054688 85.12886719 241.22109375 85.13273437 240.3046875 85.13671875 C239.44101562 85.13542969 238.57734375 85.13414063 237.6875 85.1328125 C236.90761719 85.13168457 236.12773437 85.13055664 235.32421875 85.12939453 C232.80720493 84.98926666 230.46473061 84.51489104 228 84 Z M-73 259 C-73.30030651 262.07928006 -73.30030651 262.07928006 -73.24050903 265.77029419 C-73.24221788 266.47437405 -73.24392673 267.1784539 -73.24568737 267.90386951 C-73.24899452 270.27471937 -73.23795865 272.64528928 -73.22705078 275.01611328 C-73.22648693 276.71096795 -73.22680271 278.40582311 -73.22793579 280.10067749 C-73.22851133 284.71202472 -73.2167246 289.32326862 -73.20278788 293.93459177 C-73.19031391 298.74991747 -73.18911266 303.56524535 -73.18673706 308.38058472 C-73.18051246 317.50369422 -73.16408843 326.62675598 -73.14403808 335.74984443 C-73.12170952 346.13420892 -73.11069332 356.51857565 -73.10064721 366.90295815 C-73.07972302 388.26866545 -73.04452806 409.63432972 -73 431 C-70.29508356 429.92957775 -67.62799504 428.8317807 -64.9765625 427.6328125 C-42.40090664 417.47639856 -20.06805153 415.40164367 3.36328125 424.2734375 C8.36812114 426.29003966 13.17922706 428.5794326 18 431 C18.21033799 408.71235979 18.36899641 386.42488346 18.46630955 364.13645172 C18.51269704 353.78724468 18.57592695 343.4386547 18.67895508 333.08984375 C18.76872282 324.06868369 18.82673858 315.04797053 18.84679645 306.02637625 C18.85851989 301.25020105 18.88602451 296.47530419 18.95157051 291.69953918 C19.01280703 287.20118822 19.03147614 282.70463793 19.01796913 278.20590973 C19.02043878 276.55791169 19.03825926 274.90985151 19.07284927 273.26221466 C19.44539611 264.29743587 19.44539611 264.29743587 16.04125786 256.27755737 C13.78849187 254.23972919 11.57785989 252.59719959 9 251 C7.93394531 250.22269531 6.86789063 249.44539062 5.76953125 248.64453125 C-21.74751962 231.59631875 -50.07056702 236.07056702 -73 259 Z M117.73073578 250.73235226 C116 252 116 252 113.95462799 253.19007969 C110.1189821 255.78964029 108.2623348 257.77530037 107.27516174 262.38387871 C107.0122605 266.8036829 107.00943308 271.15977722 107.09179688 275.58374023 C107.09405514 277.27933139 107.09278354 278.97493036 107.08825684 280.67051697 C107.08596554 285.26155467 107.13292904 289.85091333 107.1888485 294.44156146 C107.23892923 299.24342967 107.24356382 304.04533829 107.25305176 308.84742737 C107.27789637 317.9353019 107.34351748 327.02240465 107.42384768 336.10993963 C107.51333108 346.45804249 107.5572689 356.80618261 107.59741116 367.15457618 C107.68098555 388.43681455 107.82165906 409.71835862 108 431 C108.50796112 430.77074829 109.01592224 430.54149658 109.53927612 430.30529785 C111.87639556 429.25258622 114.21551689 428.20439547 116.5546875 427.15625 C117.35350342 426.79563477 118.15231934 426.43501953 118.9753418 426.06347656 C140.0096706 416.6576205 161.77364167 416.09896305 183.36328125 424.2734375 C188.36812114 426.29003966 193.17922706 428.5794326 198 431 C198.21033799 408.71235979 198.36899641 386.42488346 198.46630955 364.13645172 C198.51269704 353.78724468 198.57592695 343.4386547 198.67895508 333.08984375 C198.76872282 324.06868369 198.82673858 315.04797053 198.84679645 306.02637625 C198.85851989 301.25020105 198.88602451 296.47530419 198.95157051 291.69953918 C199.01280703 287.20118822 199.03147614 282.70463793 199.01796913 278.20590973 C199.02043878 276.55791169 199.03825926 274.90985151 199.07284927 273.26221466 C199.44539611 264.29743587 199.44539611 264.29743587 196.04125786 256.27755737 C193.78849187 254.23972919 191.57785989 252.59719959 189 251 C187.93394531 250.22269531 186.86789062 249.44539062 185.76953125 248.64453125 C162.37605175 234.15108094 140.07239944 234.06853093 117.73073578 250.73235226 Z M297.73073578 250.73235226 C296 252 296 252 293.95462799 253.19007969 C290.1189821 255.78964029 288.2623348 257.77530037 287.27516174 262.38387871 C287.0122605 266.8036829 287.00943308 271.15977722 287.09179688 275.58374023 C287.09405514 277.27933139 287.09278354 278.97493036 287.08825684 280.67051697 C287.08596554 285.26155467 287.13292904 289.85091333 287.1888485 294.44156146 C287.23892923 299.24342967 287.24356382 304.04533829 287.25305176 308.84742737 C287.27789637 317.9353019 287.34351748 327.02240465 287.42384768 336.10993963 C287.51333108 346.45804249 287.5572689 356.80618261 287.59741116 367.15457618 C287.68098555 388.43681455 287.82165906 409.71835862 288 431 C288.50796112 430.77074829 289.01592224 430.54149658 289.53927612 430.30529785 C291.87639556 429.25258622 294.21551689 428.20439547 296.5546875 427.15625 C297.35350342 426.79563477 298.15231934 426.43501953 298.9753418 426.06347656 C318.57790865 417.29785708 340.57851469 415.54788837 361 423 C364.18893813 424.32033925 367.33379139 425.73000611 370.4765625 427.15625 C371.30067627 427.5265332 372.12479004 427.89681641 372.97387695 428.27832031 C374.98415002 429.18214142 376.99278418 430.08941468 379 431 C379.18691635 408.69504492 379.32797224 386.39021904 379.41449738 364.08463955 C379.45574126 353.72762808 379.51196653 343.37110334 379.60351562 333.0144043 C379.68327596 323.98702881 379.73487104 314.96000581 379.75270796 305.93228775 C379.76313415 301.15235096 379.78761918 296.37342256 379.84584045 291.59380913 C379.90021922 287.09309862 379.91687777 282.59380987 379.90486145 278.09280205 C379.907059 276.44279243 379.92292979 274.79273438 379.9536438 273.14300919 C380.36231248 264.39739957 380.36231248 264.39739957 377.27055359 256.50438118 C375.26031577 254.70901896 373.33070648 253.34126208 371 252 C369.94296875 251.25492188 368.8859375 250.50984375 367.796875 249.7421875 C343.76349155 235.01403713 321.05103005 233.33860651 297.73073578 250.73235226 Z M48 295 C47.92986129 316.48825171 47.87698798 337.9764845 47.84456348 359.46482754 C47.82910682 369.44265512 47.80804025 379.42041149 47.77368164 389.39819336 C47.74374253 398.09670706 47.72441627 406.79516919 47.71773452 415.49373299 C47.71382991 420.09785573 47.70467855 424.70183093 47.68280983 429.3059063 C47.66237337 433.6437893 47.65618062 437.98146467 47.66067696 442.31939125 C47.65985495 443.90721644 47.65393204 445.49504893 47.64238358 447.08283234 C47.56428416 458.37938663 47.80796815 467.59791606 56 476 C59.71226816 477.85613408 63.94803223 477.44168369 68 477 C73.33475497 474.21664958 75.76571602 468.87172431 77.54228878 463.29893875 C78.15118717 460.24063465 78.12261043 457.33621064 78.12025452 454.21697998 C78.12110894 453.53569259 78.12196337 452.8544052 78.12284368 452.15247273 C78.1244901 449.87082742 78.11899084 447.58925572 78.11352539 445.30761719 C78.11324331 443.67158001 78.11340166 442.03554271 78.1139679 440.39950562 C78.11425506 435.95772431 78.10837131 431.51596995 78.10139394 427.07419491 C78.09514703 422.43237888 78.09455554 417.79056226 78.09336853 413.14874268 C78.09025917 404.35862684 78.08205108 395.56852342 78.07201904 386.77841306 C78.06084566 376.77125725 78.05534436 366.76410085 78.05032361 356.75694036 C78.03986816 336.17128664 78.02227633 315.5856441 78 295 C77.22293701 295.16233124 76.44587402 295.32466248 75.64526367 295.49191284 C73.12654319 295.97569431 70.87157512 296.12911136 68.3125 296.1328125 C67.44882813 296.13410156 66.58515625 296.13539063 65.6953125 296.13671875 C64.80585938 296.13285156 63.91640625 296.12898438 63 296.125 C62.11054688 296.12886719 61.22109375 296.13273437 60.3046875 296.13671875 C59.44101563 296.13542969 58.57734375 296.13414062 57.6875 296.1328125 C56.90761719 296.13168457 56.12773437 296.13055664 55.32421875 296.12939453 C52.80720493 295.98926666 50.46473061 295.51489104 48 295 Z M228 295 C227.92986129 316.48825171 227.87698798 337.9764845 227.84456348 359.46482754 C227.82910682 369.44265512 227.80804025 379.42041149 227.77368164 389.39819336 C227.74374253 398.09670706 227.72441627 406.79516919 227.71773452 415.49373299 C227.71382991 420.09785573 227.70467855 424.70183093 227.68280983 429.3059063 C227.66237337 433.6437893 227.65618062 437.98146467 227.66067696 442.31939125 C227.65985495 443.90721644 227.65393204 445.49504893 227.64238358 447.08283234 C227.56428416 458.37938663 227.80796815 467.59791606 236 476 C239.71226816 477.85613408 243.94803223 477.44168369 248 477 C253.33475497 474.21664958 255.76571602 468.87172431 257.54228878 463.29893875 C258.15118717 460.24063465 258.12261043 457.33621064 258.12025452 454.21697998 C258.12110894 453.53569259 258.12196337 452.8544052 258.12284368 452.15247273 C258.1244901 449.87082742 258.11899084 447.58925572 258.11352539 445.30761719 C258.11324331 443.67158001 258.11340166 442.03554271 258.1139679 440.39950562 C258.11425506 435.95772431 258.10837131 431.51596995 258.10139394 427.07419491 C258.09514703 422.43237888 258.09455554 417.79056226 258.09336853 413.14874268 C258.09025917 404.35862684 258.08205108 395.56852342 258.07201904 386.77841306 C258.06084566 376.77125725 258.05534436 366.76410085 258.05032361 356.75694036 C258.03986816 336.17128664 258.02227633 315.5856441 258 295 C257.22293701 295.16233124 256.44587402 295.32466248 255.64526367 295.49191284 C253.12654319 295.97569431 250.87157512 296.12911136 248.3125 296.1328125 C247.44882812 296.13410156 246.58515625 296.13539063 245.6953125 296.13671875 C244.80585938 296.13285156 243.91640625 296.12898438 243 296.125 C242.11054688 296.12886719 241.22109375 296.13273437 240.3046875 296.13671875 C239.44101562 296.13542969 238.57734375 296.13414062 237.6875 296.1328125 C236.90761719 296.13168457 236.12773437 296.13055664 235.32421875 296.12939453 C232.80720493 295.98926666 230.46473061 295.51489104 228 295 Z " fill="#000000" transform="translate(103,4)"/>
</svg>
